<?xml version="1.0" standalone="no"?>
<!DOCTYPE svg PUBLIC "-//W3C//DTD SVG 1.1//EN" "http://www.w3.org/Graphics/SVG/1.1/DTD/svg11.dtd" >
<svg xmlns="http://www.w3.org/2000/svg">
<metadata>
This is a custom SVG font generated by IcoMoon.
<iconset grid="10"></iconset>
</metadata>
<defs>
<font id="ffos_icons_font" horiz-adv-x="320" >
<font-face units-per-em="320" ascent="288" descent="-32" />
<missing-glyph horiz-adv-x="320" />
<glyph class="hidden" unicode="&#xf000;" d="M0,288L 320 -32L0 -32 z" horiz-adv-x="0" />
<glyph unicode="&#x21;" d="M 304.019,149.609L 304.019,149.609L 186.948,32.557l0,0l-32.222,0 L 154.726,64.779 
			l0,0l 117.067,117.060l0,0c 4.533,4.484, 15.42,0.956, 24.305-7.925C 304.975,165.030, 308.506,154.146, 304.019,149.609z M 162.839,72.885
			l-8.068-8.056l 32.226-32.226l 8.019,8.072L 162.839,72.885z M 70.788,138.963c0,14.705, 11.938,26.643, 26.643,26.643
			c 14.754,0, 26.692-11.938, 26.692-26.643c0-14.75-11.938-26.692-26.692-26.692C 82.726,112.271, 70.788,124.213, 70.788,138.963z M 247.157,164.077
			L 247.157,204.371 L 33.073,204.371 L 33.073,52.175 l 102.174,0 l-19.049-19L 23.522,33.175 c-5.252,0-9.498,4.247-9.498,9.502L 14.024,213.918 c0,5.252, 4.247,9.502, 9.498,9.502l 233.137,0 
			c 5.248,0, 9.547-4.247, 9.547-9.502l0-32.561 l-0.904,0.907L 247.157,164.077z M 247.157,52.175l0,1.389 l 19.049,18.993l0-29.873 
			c0-5.252-4.299-9.502-9.547-9.502l-29.888,0 l 19.008,19L 247.157,52.179 z"  />
<glyph unicode="&#x22;" d="M 210.274,21.052L 114.308,21.052 c-21.624,0-41.299,8.113-56.335,21.342
			L 210.274,42.394 c 35.377,0, 64.023,28.634, 64.023,63.962c0,35.377-28.646,64.023-64.023,64.023L 154.27,170.379 c-0.956-13.892-3.772-26.692-8.023-37.143
			L 107.294,172.194c-4.823,4.823-4.823,12.649,0,17.476l 38.908,38.912c 4.25-10.409, 7.066-23.059, 8.072-36.86L 210.274,191.725 
			c 47.168,0, 85.368-38.193, 85.368-85.368C 295.639,59.245, 257.446,21.052, 210.274,21.052z"  />
<glyph unicode="&#x23;" d="M 271.578,101.323L 271.578,154.647 l 16.422,0 l0-53.327 L 271.578,101.323 z M 271.578,233.807
			c0,2.82-2.293,5.154-5.154,5.154l-25.784,0 L 240.64,255.386 l 34.613,0 c 7.044,0, 12.747-5.726, 12.747-12.747l0-34.662 l-16.422,0 L 271.578,233.807 z M 133.96,255.386l 53.331,0 
			l0-16.425 L 133.96,238.961 L 133.96,255.386 z M 49.664,233.807l0-25.83 L 33.242,207.977 l0,34.662 c0,7.017, 5.681,12.747, 12.721,12.747l 34.639,0 l0-16.425 l-25.784,0 
			C 51.96,238.961, 49.664,236.623, 49.664,233.807z M 49.664,101.323L 33.242,101.323 L 33.242,154.647 l 16.422,0 L 49.664,101.323 z M 49.664,47.977l0-25.784 
			c0-2.869, 2.293-5.158, 5.154-5.158l 25.784,0 l0-16.418 l-34.639,0 c-7.040,0-12.721,5.681-12.721,12.698l0,34.662 L 49.664,47.977 z M 187.287,0.617L 133.96,0.617 
			l0,16.418 l 53.331,0 L 187.287,0.617 z M 271.578,22.193l0,25.784 l 16.422,0 l0-34.662 c0-7.017-5.704-12.698-12.747-12.698l-34.613,0 l0,16.418 l 25.784,0 
			C 269.286,17.035, 271.578,19.332, 271.578,22.193z"  />
<glyph unicode="&#x24;" d="M 203.29,21.192L 203.29,85.203 l 64,0 l0-64.015 L 203.29,21.188 z M 203.29,159.541
			l 64,0 l0-64.026 L 203.29,95.511 L 203.29,159.541 z M 203.29,234.5l 64,0 l0-63.974 L 203.29,170.522 L 203.29,234.5 z M 128.617,85.203l 64,0 l0-64.015 L 128.617,21.188 L 128.617,85.203 z
			 M 128.617,159.541l 64,0 l0-64.026 L 128.617,95.511 L 128.617,159.541 z M 128.617,234.5l 64,0 l0-63.974 L 128.617,170.522 L 128.617,234.5 z M 53.948,85.203l 64,0 l0-64.015 L 53.948,21.188 
			L 53.948,85.203 z M 53.948,159.541l 64,0 l0-64.026 L 53.948,95.511 L 53.948,159.541 z M 53.948,234.831l 64,0 L 117.952,170.857 L 53.948,170.857 L 53.948,234.831 z"  />
<glyph unicode="&#x25;" d="M 287.842,203.991l 17.668,0 L 305.51,244.333 c0,0-1.626,9.641-9.694,9.641
					c-13.53,0-39.981,0-39.981,0l0-17.999 l 32.008,0 L 287.842,203.991 z M 14.155,244.333l0-40.343 l 17.687,0 l0,31.985 l 31.989,0 L 63.831,253.975 c0,0-27.121,0-40.346,0
					C 16.158,253.975, 14.155,244.333, 14.155,244.333z M 31.842,54.656l-17.687,0 l0-40.011 c0,0, 1.792-9.641, 9.329-9.641c 13.704,0, 40.346,0, 40.346,0
					l0,17.999 L 31.842,23.002 L 31.842,54.656 z M 287.842,23.002l-32.008,0 l0-17.999 c0,0, 26.613,0, 39.981,0c 7.548,0, 9.694,9.641, 9.694,9.641L 305.51,54.656 l-17.668,0 L 287.842,23.002 z
					 M 21.15,97.329l 10.696,0 L 31.846,161.306 L 21.15,161.306 l0-10.65 c-5.873,0-20.981-15.563-20.981-21.338c0-5.44, 15.112-21.338, 20.981-21.338L 21.15,97.329 z
					 M 298.492,150.66l0,10.65 l-10.65,0 L 287.842,97.329 l 10.65,0 l0,10.65 c 5.892,0, 21.342,16.23, 21.342,21.673C 319.834,135.432, 304.388,150.66, 298.492,150.66z
					 M 127.782,12.024l 10.673,0 c0-5.914, 15.541-21.342, 21.338-21.342c 4.77,0, 21.316,15.428, 21.316,21.342l 10.673,0 l0,10.65 L 127.782,22.671 L 127.782,12.024 z M 191.548,246.675
					l-10.673,0 c0,5.873-17.257,18.669-21.32,18.669c-4.819,0-21.338-12.792-21.338-18.669l-10.673,0 l0-10.696 l 64,0 L 191.544,246.675 z"  />
<glyph unicode="&#x26;" d="M 3.855,221.715l0-40.343 l 17.664,0 l0,31.989 l 31.989,0 l0,17.999 L 13.165,231.36 C 5.715,231.36, 3.855,221.715, 3.855,221.715z
					 M 149.519,106.699l 10.65,0 l0,10.643 l-10.65,0 L 149.519,106.699 z M 96.188,25.333l 42.635,0 l0,17.66 l-42.635,0 L 96.188,25.333 z M 138.824,231.36l-42.635,0 l0-17.999 l 42.635,0 L 138.824,231.36 
					z M 21.515,74.699L 3.855,74.699 l0-40.011 c0,0, 2.007-9.355, 9.314-9.355l 40.343,0 l0,17.66 L 21.515,42.993 L 21.515,74.699 z M 21.515,149.384L 3.855,149.384 L 3.855,106.699 l 17.664,0 L 21.515,149.384 
					z M 181.508,25.333l 42.68,0 l0,17.66 L 181.508,42.993 L 181.508,25.333 z M 298.861,42.997l-32.038,0 l0-17.66 L 306.835,25.336 c 7.548,0, 9.355,9.355, 9.355,9.355L 316.186,74.699 
					l-17.329,0 L 298.861,42.997 z M 149.519,128.038l 10.65,0 l0,10.65 l-10.65,0 L 149.519,128.038 z M 306.835,231.36L 266.82,231.36 l0-17.999 l 32.038,0 l0-31.989 l 17.329,0 L 316.186,221.715 
					C 316.186,221.715, 314.477,231.36, 306.835,231.36z M 298.861,106.699l 17.329,0 L 316.186,149.384 l-17.329,0 L 298.861,106.699 z M 181.508,213.361l 42.68,0 l0,17.999 L 181.508,231.36 
					L 181.508,213.361 z M 199.032,124.747c-1.574-2.534-4.819-6.78-9.694-12.747l-16.087-19.433l0-7.209 l 40.151,0 l0,7.733 l-31.413,0 l0,0.433 l 13.368,15.706
					c 5.967,6.976, 10.025,12.747, 12.171,17.284c 2.199,4.582, 3.249,9.167, 3.249,13.798c0,5.967-1.626,10.744-4.872,14.276
					c-3.241,3.535-7.733,5.297-13.508,5.297c-6.584,0-15.853-5.824-21.481-11.46l 3.678-5.681c 2.771,2.673, 8.452,7.496, 10.696,8.497
					c 2.293,1.005, 4.68,1.48, 7.209,1.48c 3.535,0, 6.253-1.144, 8.26-3.437c 1.958-2.293, 2.963-5.395, 2.963-9.31
					c0-2.771-0.384-5.395-1.197-7.782C 201.747,129.807, 200.561,127.326, 199.032,124.747z M 123.358,124.032L 123.358,124.461 
					c 4.296,0.952, 7.639,2.963, 9.976,5.873c 2.342,2.963, 3.49,6.78, 3.49,11.411c0,5.632-1.72,10.074-5.252,13.271
					c-3.531,3.249-8.448,4.868-14.844,4.868c-3.87,0-7.544-0.67-11.076-2.007c-3.49-1.336-6.588-3.2-9.265-5.538l 3.772-5.587
					c 3.249,2.342, 6.114,3.919, 8.693,4.774c 2.534,0.862, 5.203,1.288, 8.072,1.288c 3.772,0, 6.731-1.001, 8.926-3.008
					c 2.199-2.052, 3.298-4.819, 3.298-8.354c0-4.439-1.483-7.925-4.484-10.409c-2.963-2.53-7.017-3.772-12.13-3.772l-6.539,0 l0-7.112 l 6.445,0 
					c 12.506,0, 18.714-4.393, 18.714-13.229c0-9.833-5.632-14.75-16.949-14.75c-2.865,0-5.918,0.433-9.118,1.242
					c-3.204,0.809-6.204,1.958-9.073,3.535l0-7.88 c 2.726-1.434, 5.538-2.44, 8.403-3.057c 2.865-0.572, 6.061-0.862, 9.498-0.862
					c 7.974,0, 14.133,1.86, 18.477,5.583c 4.299,3.727, 6.494,9.069, 6.494,15.992c0,4.819-1.291,8.738-3.821,11.746
					C 132.521,121.449, 128.606,123.313, 123.358,124.032z"  />
<glyph unicode="&#x27;" d="M 85.331,245.704l 31.989,0 L 117.32,263.371 L 76.973,263.371 c0,0-9.31-1.672-9.31-9.69l0-40.343 l 17.664,0 L 85.327,245.704 z
					 M 85.331,112.019l-17.664,0 l0-36.988 l 17.664,0 L 85.331,112.019 z M 85.331,181.346l-17.664,0 l0-37.335 l 17.664,0 L 85.331,181.346 z M 85.331,42.707l-17.664,0 l0-40.004 
					c0-8.12, 9.31-9.363, 9.31-9.363l 40.346,0 l0,17.336 l-31.989,0 L 85.335,42.707 z M 170.647,149.361L 160,149.361 l0-10.696 l 10.647,0 L 170.647,149.361 z M 160,117.323l 10.647,0 
					l0,10.696 L 160,128.015 L 160,117.323 z M 181.342,263.371L 138.658,263.371 l0-17.664 l 42.688,0 L 181.346,263.371 z M 138.658-6.66l 42.688,0 l0,17.336 L 138.658,10.677 L 138.658-6.66 z M 234.669,75.031
					l 17.664,0 l0,36.988 l-17.664,0 L 234.669,75.031 z M 242.688,263.322l-0.045,0.049L 202.635,263.371 l0-17.664 l 32.038,0 l0-32.369 l 17.664,0 L 252.337,253.677 
					C 252.337,261.459, 243.501,263.179, 242.688,263.322z M 234.669,144.011l 17.664,0 l0,37.335 l-17.664,0 L 234.669,144.011 z M 234.669,10.68L 202.635,10.68 l0-17.336 l 39.676,0 
					c0,0, 10.025,1.336, 10.025,9.363L 252.337,42.707 l-17.664,0 L 234.673,10.68 z M 110.396,153.416c 2.771,2.628, 8.452,7.447, 10.696,8.452
					c 2.293,1.005, 4.68,1.528, 7.209,1.528c 3.535,0, 6.253-1.148, 8.26-3.441c 1.961-2.293, 2.959-5.395, 2.959-9.31
					c0-2.82-0.384-5.395-1.19-7.831c-0.764-2.391-1.912-4.868-3.49-7.401c-1.577-2.579-4.774-6.825-9.69-12.792l-16.090-19.437l0-7.157 
					l 40.154,0 l0,7.733 l-31.416,0 l0,0.384 l 13.368,15.759c 5.967,6.923, 10.025,12.698, 12.175,17.284c 2.195,4.533, 3.294,9.118, 3.294,13.798
					c0,5.967-1.626,10.696-4.917,14.227c-3.249,3.535-7.736,5.301-13.463,5.301c-6.637,0-15.898-5.824-21.53-11.415L 110.396,153.416z
					 M 224.026,117.372c0,4.864-1.291,8.783-3.825,11.746c-2.53,3.008-6.445,4.823-11.697,5.583l0,0.384 
					c 4.296,1.005, 7.639,2.963, 9.976,5.918c 2.342,2.963, 3.49,6.731, 3.49,11.366c0,5.632-1.72,10.074-5.252,13.32
					c-3.535,3.2-8.452,4.823-14.803,4.823c-3.915,0-7.593-0.67-11.125-2.007c-3.486-1.336-6.588-3.2-9.261-5.538l 3.772-5.583
					c 3.245,2.342, 6.11,3.919, 8.689,4.774c 2.534,0.862, 5.207,1.291, 8.072,1.291c 3.772,0, 6.731-1.005, 8.93-3.008
					c 2.195-2.007, 3.294-4.823, 3.294-8.354c0-4.439-1.483-7.925-4.484-10.409c-2.963-2.485-7.017-3.772-12.13-3.772l-6.539,0 l0-7.063 l 6.445,0 
					c 12.506,0, 18.718-4.439, 18.718-13.225c0-9.833-5.632-14.803-16.949-14.803c-2.869,0-5.918,0.433-9.122,1.242
					c-3.2,0.817-6.204,2.007-9.069,3.535l0-7.827 c 2.722-1.487, 5.538-2.485, 8.399-3.057c 2.914-0.572, 6.061-0.862, 9.502-0.862
					c 7.97,0, 14.129,1.86, 18.477,5.583C 221.828,105.148, 224.026,110.449, 224.026,117.372z"  />
<glyph unicode="&#x28;" d="M 307.614,89.295c0-7.157-5.542-12.969-12.367-12.969l-65.288-0.286
			c-7.017,0-12.721,5.813-12.721,13.022l-0.316,64.926c0,7.066, 5.805,12.792, 12.92,12.792l 65.167,0 c 6.968,0, 12.604-5.726, 12.604-12.792L 307.614,89.295 z
			 M 291.663,145.728c0,2.82-2.244,5.105-5.011,5.105l-49.126-0.049c-2.869,0-5.158-2.293-5.158-5.105l0-47.601 
			c0-2.91, 2.293-5.248, 5.158-5.248l 49.126,0.233c 2.771,0, 5.011,2.391, 5.011,5.252L 291.663,145.728 z M 193.98,76.326L 128.693,76.040
			c-7.017,0-12.725,5.813-12.725,13.022l-0.309,64.926c0,7.066, 5.801,12.792, 12.913,12.792l 65.175,0 c 6.968,0, 12.604-5.726, 12.604-12.792l0-64.693 
			C 206.351,82.138, 200.809,76.326, 193.98,76.326z M 190.404,145.728c0,2.82-2.244,5.105-5.011,5.105L 136.256,150.792
			c-2.865,0-5.154-2.293-5.154-5.105l0-47.601 c0-2.91, 2.293-5.248, 5.154-5.248l 49.129,0.233c 2.771,0, 5.011,2.391, 5.011,5.252L 190.4,145.728 z
			 M 90.714,76.326L 25.446,76.040c-7.017,0-12.721,5.813-12.721,13.022L 12.408,153.988c0,7.066, 5.775,12.792, 12.917,12.792l 65.144,0 
			c 6.968,0, 12.604-5.726, 12.604-12.792l0-64.693 C 103.078,82.138, 97.536,76.326, 90.714,76.326z M 87.13,145.728c0,2.82-2.248,5.105-5.011,5.105
			L 32.99,150.792c-2.869,0-5.154-2.293-5.154-5.105l0-47.601 c0-2.91, 2.289-5.248, 5.154-5.248l 49.129,0.233
			c 2.767,0, 5.011,2.391, 5.011,5.252L 87.13,145.728 z"  />
<glyph unicode="&#x29;" d="M 107.437-6.991l 42.684,0 l0,17.999 L 107.437,11.008 L 107.437-6.991 z M 171.456,128.015l-10.673,0 l0-10.696 l 10.673,0 L 171.456,128.015 z
					 M 107.437,245.704l 42.684,0 L 150.121,263.036 L 107.437,263.036 L 107.437,245.704 z M 171.456,149.361l-10.673,0 l0-10.696 l 10.673,0 L 171.456,149.361 z M 54.103,117.323L 36.442,117.323 l0-52.984 l 17.664,0 L 54.103,117.323 
					z M 54.103,42.707L 36.442,42.707 l0-40.004 c0,0, 2.056-9.694, 9.359-9.694l 40.316,0 l0,17.999 l-32.011,0 L 54.103,42.707 z M 36.442,253.677l0-40.343 l 17.664,0 L 54.103,245.704 
					l 32.011,0 L 86.118,263.036 L 45.798,263.036 C 38.588,263.036, 36.442,253.677, 36.442,253.677z M 267.467,64.335l 17.333,0 l0,52.984 l-17.333,0 L 267.467,64.335 z M 171.456-6.991l 42.662,0 
					l0,17.999 L 171.456,11.008 L 171.456-6.991 z M 275.441,263.036L 235.456,263.036 l0-17.329 l 32.011,0 l0-32.369 l 17.333,0 L 284.8,253.677 C 284.804,253.677, 282.94,263.036, 275.441,263.036z
					 M 54.103,191.996L 36.442,191.996 l0-53.331 l 17.664,0 L 54.103,191.996 z M 267.467,138.662l 17.333,0 L 284.8,191.996 l-17.333,0 L 267.467,138.662 z M 171.456,245.704l 42.662,0 L 214.118,263.036 L 171.456,263.036 
					L 171.456,245.704 z M 267.467,11.012l-32.011,0 l0-17.999 l 39.985,0 c 7.996,0, 9.359,9.694, 9.359,9.694L 284.8,42.707 l-17.333,0 L 267.467,11.012 z M 127.435,96.026l 11.987,0 L 139.422,170.556 
					l-10.003,0 l-21.933-17.239l 6.016-7.59c 6.49,5.252, 10.312,8.403, 11.46,9.359c 1.148,1.001, 2.101,1.909, 2.891,2.722
					c-0.264-3.392-0.407-7.925-0.407-13.655L 127.443,96.026 z M 202.108,96.026l 11.987,0 L 214.095,170.556 l-10.003,0 l-21.937-17.239l 6.016-7.59
					c 6.494,5.252, 10.315,8.403, 11.464,9.359c 1.144,1.001, 2.101,1.909, 2.865,2.722c-0.237-3.392-0.384-7.925-0.384-13.655L 202.112,96.026 z"  />
<glyph unicode="&#x2a;" d="M 220.326,178.097l-11.964,30.505l-38.456,0 l-11.821-30.505l-11.268,0 
			L 184.73,274.447l 9.404,0 l 37.715-96.346L 220.326,178.097 z M 193.728,248.38c-1.457,3.772-2.936,8.403-4.465,13.847
			c-0.956-4.201-2.338-8.783-4.13-13.847l-11.29-29.696l 31.032,0 L 193.728,248.38z M 181.342,164.303c 3.031,0.907, 6.227,1.288, 9.498,0.429
			c 9.453-2.534, 16.041-12.555, 13.534-22.008c-7.375-27.55-27.573-102.871-27.573-102.871l 27.836-7.45L 154.673-16.154l-0.023,0 
			c-1.98-1.867-4.917-2.729-7.804-1.961c-2.891,0.817-5.037,3.016-5.801,5.583l-0.023,0 l-19.004,67.080l 29.907-8.019l 21.914,81.724
			l-75.983-18.146L 97.837,110.11 c-3.057-0.956-6.396-1.096-9.717-0.192c-9.453,2.537-15.063,12.224-12.529,21.677c 0.049,0.192, 0.143,0.384, 0.215,0.572
			l 35.667,127.048c 8.76,0.527, 17.57,0.858, 26.526,0.858c 0.143,0, 0.237,0, 0.38,0L 105.739,146.018L 181.342,164.303z M 204.375,142.724
			L 204.375,142.724C 207.507,154.417, 208.365,157.572, 204.375,142.724z"  />
<glyph unicode="&#x2b;" d="M 227.972,149.884L 227.972,149.884
			C 231.127,161.581, 231.944,164.732, 227.972,149.884z M 228.258,39.563L 178.274-8.998l0,0c-2.007-1.86-4.917-2.722-7.827-1.958
			c-2.918,0.809-5.018,3.008-5.828,5.583l0,0l-19,67.080l 29.937-8.019l 21.884,81.72l-75.983-18.142l0,0
			c-3.080-0.956-6.423-1.103-9.743-0.192c-9.453,2.53-15.063,12.224-12.529,21.673c 0.072,0.192, 0.166,0.384, 0.215,0.572l 35.667,127.048
			c 8.738,0.527, 17.57,0.862, 26.522,0.862c 0.12,0, 0.237,0, 0.361,0l-32.61-114.059l 75.603,18.285c 3.031,0.907, 6.231,1.291, 9.525,0.429
			c 9.431-2.53, 16.015-12.555, 13.508-22.008c-7.371-27.55-27.592-102.874-27.592-102.874L 228.258,39.563z"  />
<glyph unicode="&#x2c;" d="M 290.643,146.18c-3.155-17.856-11.603-33.419-23.488-45.301
			c-17.619-17.766-5.538,1.096, 5.726,24.629c-0.143-0.429-0.237-0.907-0.384-1.288c-2.865-6.871-1.864-5.873,0,0
			c 0.764,1.766, 1.72,4.009, 3.057,6.92c-0.907-1.909-1.769-3.772-2.677-5.632c 6.204,20.292, 18.906,85.455-55.138,98.537L 165.899,233.739
			c-3.392-13.508-3.682-14.942-9.694-24.489l-39.575,34.421c-3.919,5.632-2.583,13.32, 3.008,17.235L 164.751,280.474
			c 2.338-10.982, 2.91-11.938, 1.528-25.732l 55.138-9.69C 267.821,236.841, 298.805,192.587, 290.643,146.18z M 148.378,202.417l 26.304,0 
			c 8.117,0, 14.942-5.060, 17.713-12.175l 36.284,0 c 8.836,0, 15.992-7.16, 15.992-15.992l0-94.287 c0-8.836-7.157-16.008-15.992-16.008L 94.291,63.959 
			c-8.881,0-16.041,7.172-16.041,16.008L 78.246,174.253 c0,8.832, 7.157,15.992, 16.041,15.992l 36.378,0 C 133.436,197.361, 140.258,202.417, 148.378,202.417z
			 M 105.363,159.744l0-63.541 c0-5.914, 4.819-10.741, 10.741-10.741l 90.609,0 c 5.918,0, 10.79,4.819, 10.79,10.741L 217.498,159.744 
			c0,5.967-4.868,10.79-10.79,10.79L 116.104,170.53 C 110.185,170.53, 105.363,165.707, 105.363,159.744z M 47.548,131.814
			C 50.413,138.688, 49.412,137.638, 47.548,131.814c-0.76-1.815-1.717-4.058-3.057-6.968c 0.862,1.909, 1.769,3.821, 2.624,5.681
			c-6.2-20.341-18.857-85.519, 55.187-98.545l 51.802-9.739c 3.388,13.508, 3.723,14.942, 9.69,24.535l 39.624-34.462
			c 3.915-5.583, 2.53-13.323-3.057-17.235l-45.067-19.58c-2.391,10.982-2.963,11.938-1.528,25.739l-55.187,9.739
			C 52.183,19.132, 21.195,63.39, 29.361,109.805c 3.151,17.86, 11.652,33.419, 23.533,45.353c 17.619,17.713, 5.489-1.148-5.775-24.632
			C 47.262,130.952, 47.405,131.381, 47.548,131.814z"  />
<glyph unicode="&#x2d;" d="M 291.294,146.206c-3.155-17.86-11.656-33.423-23.492-45.304
			c-17.664-17.766-5.538,1.096, 5.73,24.632c-0.147-0.429-0.286-0.907-0.384-1.288c-2.914-6.874-1.912-5.873,0,0
			c 0.712,1.766, 1.717,4.009, 3.008,6.92c-0.862-1.909-1.72-3.772-2.624-5.632c 6.2,20.296, 18.903,85.463-55.194,98.545
			l-51.802,9.694c-3.388-13.512-3.678-14.942-9.694-24.493l-39.578,34.424c-3.964,5.632-2.583,13.32, 3.008,17.235L 165.346,280.512
			c 2.391-10.982, 2.963-11.938, 1.528-25.736l 55.191-9.694C 268.472,236.872, 299.46,192.614, 291.294,146.206z M 148.973,202.447l 26.353,0 
			c 8.072,0, 14.897-5.060, 17.717-12.175l 36.239,0 c 8.877,0, 16.041-7.16, 16.041-15.992l0-94.298 c0-8.828-7.16-15.977-16.041-15.977L 94.878,64.008 
			c-8.836,0-15.996,7.149-15.996,15.977L 78.882,174.28 c0,8.836, 7.16,15.992, 15.996,15.992l 36.382,0 C 134.076,197.387, 140.902,202.447, 148.973,202.447z
			 M 115.407,128.207c0-25.83, 20.913-46.735, 46.743-46.735c 25.781,0, 46.69,20.909, 46.69,46.735c0,25.784-20.913,46.694-46.69,46.694
			C 136.32,174.901, 115.407,153.988, 115.407,128.207z M 192.757,128.207c0-16.949-13.704-30.701-30.652-30.701c-16.904,0-30.652,13.749-30.652,30.701
			c0,16.904, 13.745,30.652, 30.652,30.652C 179.049,158.859, 192.757,145.107, 192.757,128.207z M 48.136,131.836
			C 51.004,138.711, 50.048,137.66, 48.136,131.836c-0.715-1.815-1.717-4.058-3.008-6.968c 0.862,1.909, 1.717,3.821, 2.624,5.681
			c-6.204-20.344-18.906-85.496, 55.191-98.534l 51.806-9.739c 3.388,13.515, 3.678,14.942, 9.69,24.538l 39.582-34.47
			c 3.915-5.583, 2.579-13.316-3.012-17.235l-45.116-19.58c-2.342,10.989-2.914,11.938-1.483,25.739l-55.191,9.739
			C 52.815,19.177, 21.828,63.432, 29.993,109.824c 3.155,17.86, 11.603,33.423, 23.488,45.357c 17.619,17.713, 5.538-1.148-5.726-24.636
			C 47.898,130.978, 48.041,131.407, 48.136,131.836z"  />
<glyph unicode="&#x2e;" d="M 281.009,52.838L 225.028,108.826l0-50.116 
			c0-14.758-11.938-26.696-26.688-26.696L 59.689,32.015 c-14.75,0-26.688,11.938-26.688,26.696L 33.001,197.342 c0,14.75, 11.938,26.688, 26.688,26.688l 138.65,0 
			c 14.75,0, 26.688-11.938, 26.688-26.688l0-50.037 l 55.981,56.004c 4.984,4.962, 11.863,6.445, 18.285,5.105l0-160.689 
			C 292.868,46.389, 285.993,47.868, 281.009,52.838z"  />
<glyph unicode="&#x2f;" d="M 272.636,22.709l-224.011,0 c-14.728,0-26.665,11.938-26.665,26.635L 21.96,206.532 
			c0,14.705, 11.938,26.688, 26.665,26.688l 65.788,0 c 5.824,6.972, 14.513,11.554, 24.35,11.554L 182.694,244.77 c 9.833,0, 18.522-4.582, 24.35-11.554l 65.596,0 
			c 14.705,0, 26.643-11.987, 26.643-26.688l0-157.188 C 299.279,34.647, 287.341,22.709, 272.636,22.709z M 160.681,205.624
			c-42.997,0-77.85-34.854-77.85-77.824c0-43.019, 34.854-77.888, 77.85-77.888c 43.016,0, 77.869,34.869, 77.869,77.888
			C 238.551,170.771, 203.697,205.624, 160.681,205.624z M 160.655,76.672c-28.216,0-51.11,22.916-51.11,51.132
			c0,28.216, 22.893,51.087, 51.11,51.087c 28.239,0, 51.113-22.871, 51.113-51.087C 211.765,99.588, 188.894,76.672, 160.655,76.672z"  />
<glyph unicode="&#x30;" d="M 192.712,89.577l0,5.967 c 18.477,13.368, 30.551,35.155, 30.551,59.72
			c0,29.696-17.619,55.096-42.88,66.793L 180.382,35.241 c 1.72-3.584, 2.583-7.258, 2.104-11.031c-1.958-16.233-25.254-26.594-53.662-23.157
			c-28.457,3.441-49.894,19.384-47.887,35.671c 1.958,16.23, 26.594,26.594, 54.999,23.153c 9.743-1.193, 18.338-3.915, 25.592-7.544L 161.525,255.601 
			l 10.413-8.474L 171.938,252.759 c 38.577-9.48, 67.272-44.216, 67.272-85.752C 239.209,133.417, 220.299,104.516, 192.712,89.577z"  />
<glyph unicode="&#x31;" d="M 194.5,150.92L 87.842,150.92 l0,8.546 l 106.658,0 L 194.5,150.92 z M 87.842,202.127
		l 106.658,0 l0-8.546 L 87.842,193.585 L 87.842,202.127 z M 216.128-0.463c-29.406,0-54.415,18.334-64.493,44.168L 47.688,43.704 c-7.304,0-13.225,5.918-13.225,13.248L 34.462,198.712 
		l 17.762,17.788l0-150.332 c0-2.985, 2.391-5.372, 5.395-5.372l 89.909,0 c-0.335,2.726-0.813,5.346-0.813,8.166c0,14.611, 4.536,28.126, 12.228,39.296
		L 87.842,108.258 l0,8.546 l 78.159,0 c 12.649,13.225, 30.351,21.579, 50.12,21.579c 4.777,0, 9.457-0.478, 13.99-1.434L 230.114,233.306 
		c0,2.963-2.432,5.395-5.395,5.395l-150.295,0 l 17.762,17.762l 142.419,0 c 7.304,0, 13.271-5.918, 13.271-13.271l0-112.824 
		c 22.249-11.554, 37.673-34.571, 37.673-61.402C 285.553,30.618, 254.468-0.463, 216.128-0.463z M 254.562,76.363l0,0.049 l-60.258,37.263l0-89.288 
		l 60.258,37.263l0,0.049 c 2.485,1.483, 4.152,4.198, 4.152,7.326S 257.050,74.88, 254.562,76.363z"  />
<glyph unicode="&#x32;" d="M 46.133,152.84c0,19.053, 3.919,37.218, 10.936,53.737L 36.397,206.581 c-8.836,0-15.996-6.923-15.996-15.447l0-187.742 
			c0-8.546, 7.16-15.443, 15.996-15.443l 186.466,0 c 8.832,0, 15.992,6.897, 15.992,15.443L 238.856,27.076 c-16.949-7.447-35.622-11.656-55.288-11.656
			C 107.633,15.42, 46.133,76.92, 46.133,152.84zM 299.162,163.87c-0.049,0.094-0.049,0.166-0.049,0.237c-0.527,4.917-1.483,9.837-2.628,14.754
			c-0.286,1.242-0.621,2.485-0.956,3.75c-1.336,4.988-2.91,9.958-5.011,14.874c-1.769,4.198-3.825,8.211-6.061,12.081
			c-0.67,1.22-1.434,2.364-2.15,3.535c-1.626,2.65-3.343,5.229-5.154,7.71c-0.907,1.22-1.815,2.413-2.771,3.607
			c-1.912,2.387-3.915,4.68-5.967,6.923c-0.907,0.956-1.769,1.958-2.726,2.865c-3.057,3.057-6.204,5.967-9.547,8.621
			c-1.626,1.314-3.392,2.507-5.154,3.727c-9.265,6.611-19.437,11.768-30.178,15.398c-0.049,0.023-0.049,0.049-0.094,0.049
			c-3.535,1.193-7.115,2.199-10.744,3.057c-0.094,0-0.143,0.023-0.192,0.049c-3.629,0.813-7.304,1.483-10.982,1.961
			c-0.094,0.023-0.192,0.049-0.237,0.049c-3.723,0.478-7.447,0.764-11.219,0.907c-0.049,0-0.094,0-0.192,0
			c-3.776,0.094-7.605,0.023-11.426-0.237c0,0-0.049,0-0.094,0c-3.821-0.286-7.688-0.764-11.554-1.412
			c-8.546-1.506-17.096-3.87-25.4-7.401c-8.358-3.535-15.996-7.996-23.014-13.128c-10.409-7.567-19.29-16.734-26.5-26.978
			c-0.237-0.312-0.478-0.621-0.67-0.934c-1.528-2.199-2.914-4.439-4.247-6.709c-0.384-0.67-0.813-1.363-1.193-2.033
			c-1.193-2.15-2.342-4.318-3.392-6.539c-0.429-0.862-0.858-1.743-1.242-2.628c-0.956-2.15-1.912-4.296-2.722-6.494
			c-0.384-0.979-0.715-2.007-1.050-3.008c-0.764-2.15-1.528-4.344-2.195-6.539c-0.237-0.907-0.429-1.841-0.67-2.771
			c-1.005-3.772-1.769-7.593-2.342-11.46c-0.286-1.743-0.572-3.486-0.764-5.252c-0.192-1.574-0.237-3.2-0.335-4.823
			c-0.143-1.909-0.286-3.821-0.286-5.752c-0.049-1.551,0-3.128, 0.049-4.702c 0.049-2.007, 0.143-4.009, 0.286-6.016
			c 0.143-1.528, 0.286-3.034, 0.478-4.536c 0.237-2.15, 0.572-4.247, 0.952-6.396c 0.237-1.385, 0.478-2.793, 0.764-4.201
			c 0.527-2.342, 1.148-4.676, 1.815-7.017c 0.331-1.19, 0.572-2.338, 0.952-3.535c 1.099-3.486, 2.342-6.968, 3.821-10.409
			c 1.769-4.198, 3.821-8.211, 6.061-12.081c 0.67-1.242, 1.434-2.387, 2.15-3.531c 1.623-2.677, 3.343-5.252, 5.154-7.74
			c 0.907-1.19, 1.815-2.387, 2.771-3.58c 1.909-2.413, 3.915-4.702, 5.967-6.923c 0.907-0.956, 1.766-1.961, 2.722-2.891
			c 3.008-3.034, 6.204-5.944, 9.502-8.595c 1.672-1.336, 3.441-2.507, 5.203-3.75c 9.551-6.78, 20.104-12.081, 31.179-15.759
			c 0.192-0.049, 0.335-0.090, 0.527-0.166c 5.297-1.72, 10.744-3.034, 16.233-3.964c 0.666-0.12, 1.333-0.192, 2.003-0.286
			c 5.444-0.84, 10.985-1.363, 16.58-1.412c 15.281-0.094, 30.844,2.842, 45.79,9.171c 14.991,6.351, 27.885,15.492, 38.483,26.549
			c 3.535,3.682, 6.682,7.639, 9.694,11.723c 0.572,0.738, 1.099,1.502, 1.626,2.27c 5.775,8.309, 10.409,17.333, 13.847,26.835
			c 0.384,0.956, 0.712,1.912, 1.047,2.914c 1.577,4.774, 2.963,9.623, 3.919,14.562c0,0.049,0,0.094,0,0.143
			c 0.907,4.819, 1.434,9.717, 1.769,14.66c 0.049,1.144, 0.094,2.342, 0.143,3.486C 299.686,153.769, 299.637,158.81, 299.162,163.87z
			 M 183.277,50.135C 162.161,50.278, 137.235,59.878, 120.188,72.004l-0.094,0.478c-12.89,10.244-23.443,23.752-30.317,39.966
			c-18.861,44.597-3.629,94.991, 33.946,122.327l 33.137-45.5c-16.855-12.273-23.729-34.857-15.277-54.859
			c 3.106-7.304, 7.974-13.176, 13.749-17.788l-0.049-0.26c 7.639-5.44, 18.812-9.837, 28.28-9.935L 183.277,50.135z M 198.558,117.557
			c-19.208-8.143-41.314,0.809-49.476,20.006c-8.117,19.196, 0.858,41.348, 20.055,49.468c 19.208,8.117, 41.314-0.836, 49.476-20.032
			C 226.726,147.829, 217.747,125.673, 198.558,117.557z M 257.623,81.623L 216.986,120.587c 12.277,12.819, 16.474,32.203, 9.073,49.585
			c-3.057,7.281-7.925,13.176-13.704,17.762l-0.143-0.166c-9.837,6.972-23.97,11.723-36.156,9.623L 166.411,252.872
			c 27.23,4.725, 59.125-5.489, 80.99-21.007l 0.192,0.237c 12.89-10.266, 23.443-23.778, 30.321-39.966
			C 294.287,153.363, 284.977,110.204, 257.623,81.623zM 212.356,187.934L 212.356,187.957L 212.213,187.765 		z"  />
<glyph unicode="&#x33;" d="M 264.535,181.892c-11.889-6.408-25.348-6.528-36.951-1.792
			L 183.371,156.239l0-103.112 c-1.769-0.621-3.558-1.050-5.346-1.423l0-58.522 c-2.583-0.414-5.207-0.632-7.906-0.632s-5.32,0.218-7.902,0.632
			L 162.214,51.704 c-1.792,0.373-3.584,0.802-5.346,1.423L 156.868,141.941 l-93.244-50.312c-1.001,1.039-1.864,2.248-2.82,3.336
			c-9.954-1.397-20.149,3.305-25.208,12.661c-5.015,9.344-3.369,20.435, 3.249,27.979c-0.384,1.419-0.907,2.82-1.242,4.247l 163.953,88.467
			c 2.387,12.296, 9.882,23.503, 21.768,29.911c 21.101,11.377, 47.409,3.512, 58.775-17.57C 293.489,219.584, 285.613,193.269, 264.535,181.892z
			 M 179.358,185.224c-1.122,2.104-2.413,4.073-3.821,5.907l-29.289-15.804c 0.764-2.195, 1.698-4.344, 2.842-6.445
			c 1.122-2.101, 2.413-4.073, 3.821-5.907l 29.289,15.8C 181.463,180.958, 180.506,183.119, 179.358,185.224z"  />
<glyph unicode="&#x34;" d="M 245.173,137.702l0-47.552 c0-5.835-4.725-10.579-10.579-10.579
			L 187.046,79.571 L 134.219,79.571 L 86.664,79.571 c-5.85,0-10.598,4.74-10.598,10.579L 76.070,137.702 l-0.049,0.049L 76.021,234.624 c0,5.835, 4.747,10.575, 10.598,10.575l 0.049,0 l 26.165,0 
			L 112.828,258.33 c0,3.068, 2.481,5.549, 5.56,5.549c 3.057,0, 5.564-2.485, 5.564-5.549l0-13.128 l 73.431,0 L 197.387,258.33 c0,3.068, 2.481,5.549, 5.538,5.549
			s 5.564-2.485, 5.564-5.549l0-13.128 l 26.112,0 l 0.049,0 c 5.85,0, 10.579-4.736, 10.579-10.575l0-96.873 L 245.173,137.702z M 171.411,190.483l-9.167,0 
			l-20.104-15.789l 5.538-6.957c 5.944,4.819, 9.453,7.684, 10.481,8.595c 1.050,0.907, 1.935,1.732, 2.65,2.47
			c-0.264-3.080-0.384-7.255-0.384-12.518l0-44.104 l 10.982,0 L 171.407,190.483 z M 229.466,53.5L 173.323-2.65c-6.972-6.961-18.24-6.961-25.208,0
			L 92.013,53.425l0,0.23 L 229.466,53.655 L 229.466,53.5 z"  />
<glyph unicode="&#x35;" d="M 202.658,21.165L 202.658,85.161 l 63.974,0 l0-63.996 L 202.658,21.165 z M 202.658,159.499
			l 63.974,0 l0-63.996 L 202.658,95.499 L 202.658,159.499 z M 202.658,234.507l 63.974,0 l0-64 L 202.658,170.504 L 202.658,234.507 z M 128,85.161l 63.962,0 l0-63.996 L 128,21.165 L 128,85.161 z
			 M 128,159.499l 63.962,0 l0-63.996 L 128,95.499 L 128,159.499 z M 128,234.507l 63.962,0 l0-64 L 128,170.504 L 128,234.507 z M 53.331,85.161l 63.974,0 l0-63.996 L 53.331,21.165 
			L 53.331,85.161 z M 53.331,159.499l 63.974,0 l0-63.996 L 53.331,95.499 L 53.331,159.499 z M 53.331,234.839l 63.974,0 l0-64.011 L 53.331,170.827 L 53.331,234.839 z"  />
<glyph unicode="&#x36;" d="M 129.743,159.928l 59.938,0 l 18.624-47.575l 18.022,0 L 167.488,262.554
					l-14.611,0 l-59.155-150.204l 17.619,0 L 129.743,159.928z M 153.495,221.933c 2.771,7.842, 4.92,15.040, 6.445,21.579
					c 2.391-8.523, 4.68-15.718, 6.95-21.579l 17.397-46.359L 135.876,175.575 L 153.495,221.933z M 91.283,84.424l0-0.23 l 56.098-56.075
					c 6.95-6.957, 18.236-6.957, 25.212,0l 56.143,56.147L 228.736,84.424 L 91.283,84.424 z"  />
<glyph unicode="&#x37;" d="M 292.819,184.934l0-0.011 l-59.87-35.701l0,33.088 l-3.723,0 l0,21.376 l 3.723,0 
			l0,31.093 l 59.87-35.712l0-0.011 c 2.293-1.434, 3.87-4.058, 3.87-7.055C 296.693,188.992, 295.115,186.376, 292.819,184.934z M 172.555,78.050
			L 172.555,78.050l 2.865-2.865L 172.555,78.050z M 150.645,99.93l 15.179,15.145l 6.588-6.615l-0.049-0.023l 18.142-18.131l-0.094-0.094
			c 9.788-10.168, 23.537-16.535, 38.769-16.542l0-21.387 c-22.584,0.011-42.827,9.988-56.625,25.769L 150.645,99.93z M 190.509,165.719l-18.142-18.131
			l 0.049-0.034L 103.277,78.434c-13.798-15.59-33.897-25.423-56.339-25.449l0,21.391 c 15.281,0.023, 28.981,6.37, 38.769,16.542l-0.094,0.094
			l 18.142,18.127l0,0.038 l 18.812,18.835l-18.812,18.839l0,0.023 l-18.142,18.142l 0.094,0.083c-9.788,10.184-23.488,16.535-38.769,16.542L 46.938,203.031 
			c 22.441-0.015, 42.541-9.86, 56.339-25.438l 34.424-34.436l 34.854,34.82c 13.798,15.767, 34.040,25.747, 56.625,25.758l0-21.376 
			c-15.232-0.011-28.981-6.374-38.769-16.553L 190.509,165.719z M 175.42,180.83l-2.865-2.854l0-0.011 L 175.42,180.83z M 24.693,74.421l 22.246,0 
			l0-21.391 L 27.896,53.030 C 26.703,60.088, 25.555,67.162, 24.693,74.421z M 27.753,202.982l 19.192,0 l0-21.38 L 24.599,181.602 C 25.412,188.849, 26.56,195.938, 27.753,202.982z
			 M 232.952,106.778l 59.87-35.712l0-0.011 c 2.293-1.434, 3.87-4.058, 3.87-7.055c0-3.008-1.577-5.617-3.87-7.063l0-0.015 l-59.87-35.701
			l0,31.108 l-3.723,0 l0,21.387 l 3.723,0 L 232.952,106.778 z"  />
<glyph unicode="&#x38;" d="M 160.011,1.517c-64.956,0-117.572,52.649-117.572,117.579
			c0,64.919, 52.616,117.557, 117.523,117.583l0-21.41 c-53.094-0.026-96.132-43.076-96.132-96.169c0-53.112, 43.064-96.166, 96.181-96.166
			c 53.116,0, 96.181,43.053, 96.181,96.166c0,23.526-8.504,45.064-22.539,61.779l 18.552,11.046c 15.853-20.032, 25.378-45.297, 25.378-72.824
			C 277.583,54.163, 224.945,1.517, 160.011,1.517z M 219.998,218.699l-59.821-35.712L 160.177,268.544 l 59.821-35.712l0-0.011 
			c 2.345-1.434, 3.896-4.062, 3.896-7.055C 223.895,222.761, 222.344,220.145, 219.998,218.699L 219.998,218.699z"  />
<glyph unicode="&#x39;" d="M 160.023,3.245c-64.934,0-117.594,52.638-117.594,117.568
			c0,64.934, 52.661,117.56, 117.545,117.583l0-21.41 C 106.884,216.96, 63.864,173.918, 63.864,120.809c0-53.101, 43.064-96.154, 96.158-96.154
			c 53.143,0, 96.154,43.053, 96.154,96.154c0,23.541-8.452,45.075-22.49,61.779l 18.53,11.057c 15.846-20.043, 25.4-45.297, 25.4-72.836
			C 277.617,55.88, 224.952,3.245, 160.023,3.245z M 142.886,130.519l-6.351,8.008l 23.108,18.153l 10.549,0 l0-78.524 l-12.649,0 L 157.538,128.858 
			c0,6.039, 0.143,10.839, 0.429,14.392c-0.813-0.862-1.815-1.815-3.008-2.854C 153.769,139.362, 149.711,136.072, 142.886,130.519z M 220.036,220.42
			l-59.87-35.712L 160.166,270.264 l 59.87-35.712l0-0.011 c 2.345-1.431, 3.866-4.047, 3.866-7.055S 222.381,221.862, 220.036,220.42L 220.036,220.42z"  />
<glyph unicode="&#x3a;" d="M 229.85,43.031c-4.393,0-8.693,0.463-12.89,1.148L 216.96,211.825 
			c 4.198,0.681, 8.497,1.148, 12.89,1.148c 4.39,0, 8.689-0.467, 12.89-1.148l0-167.65 C 238.539,43.494, 234.24,43.031, 229.85,43.031z
			 M 198.434,113.713l0-0.023 L 77.312,41.423L 77.312,214.584 l 121.122-72.271l0-0.026 c 4.676-2.91, 7.827-8.211, 7.827-14.287
			C 206.261,121.924, 203.113,116.627, 198.434,113.713z"  />
<glyph unicode="&#x3b;" d="M 122.214,114.168l0,0.023 c-4.68,2.816-7.831,7.936-7.831,13.82
			c0,5.873, 3.151,11.008, 7.831,13.82l0,0.023 l 121.122,69.918L 243.336,44.235 L 122.214,114.168z M 77.907,46.908L 77.907,209.118 
			c 4.224,0.666, 8.497,1.111, 12.89,1.111c 4.416,0, 8.689-0.444, 12.913-1.111l0-162.206 c-4.224-0.67-8.497-1.111-12.913-1.111
			C 86.4,45.801, 82.131,46.238, 77.907,46.908z"  />
<glyph unicode="&#x3c;" d="M 292.175,57.502c-4.39,0-8.693,0.467-12.89,1.148L 279.285,226.296 
			c 4.198,0.681, 8.501,1.148, 12.89,1.148s 8.689-0.467, 12.89-1.148l0-167.646 C 300.86,57.969, 296.568,57.502, 292.175,57.502z M 260.759,128.158
			L 139.637,55.887L 139.637,229.048 l 121.122-72.271l0-0.023 c 4.676-2.914, 7.831-8.211, 7.831-14.283c0-6.076-3.155-11.377-7.831-14.287L 260.759,128.158 z
			 M 121.114,128.158L-0.008,55.887L-0.008,229.048 l 121.122-72.271l0-0.023 c 4.68-2.914, 7.88-8.211, 7.88-14.283c0-6.076-3.2-11.377-7.88-14.287
			L 121.114,128.158 z"  />
<glyph unicode="&#x3d;" d="M 198.878,114.168l0,0.023 c-4.68,2.816-7.857,7.936-7.857,13.82
			c0,5.873, 3.177,11.008, 7.857,13.82l0,0.023 L 320.004,211.776L 320.004,44.235 L 198.878,114.168z M 59.253,114.191c-4.702,2.816-7.857,7.936-7.857,13.82
			c0,5.873, 3.155,11.008, 7.857,13.82l0,0.023 l 121.096,69.918L 180.348,44.235 L 59.253,114.168L 59.253,114.191 z M 14.916,46.908L 14.916,209.118 
			c 4.224,0.666, 8.501,1.111, 12.89,1.111c 4.416,0, 8.693-0.444, 12.917-1.111l0-162.206 C 36.503,46.238, 32.226,45.801, 27.81,45.801
			C 23.416,45.801, 19.144,46.238, 14.916,46.908z"  />
<glyph unicode="&#x3e;" d="M 72.008,245.346l 176.034,0 c 16.184,0, 29.312-13.128, 29.312-29.323l0-176.008 
			c0-16.211-13.128-29.338-29.312-29.338l-176.034,0 c-16.184,0-29.312,13.128-29.312,29.338L 42.696,216.023 C 42.696,232.218, 55.823,245.346, 72.008,245.346z"  />
<glyph unicode="&#x3f;" d="M 223.74,254.408c-11.437,0-22.584-0.753-33.472-1.95l0-248.911 
					c 10.888-1.193, 22.031-1.95, 33.472-1.95c 11.411,0, 22.554,0.753, 33.468,1.95L 257.208,252.461 C 246.295,253.655, 235.147,254.408, 223.74,254.408z
					 M 64.034,252.461l0-248.911 c 10.888-1.193, 22.008-1.95, 33.468-1.95c 11.411,0, 22.536,0.753, 33.446,1.95L 130.948,252.461 
					c-10.906,1.193-22.031,1.95-33.446,1.95C 86.046,254.408, 74.921,253.655, 64.034,252.461z"  />
<glyph unicode="&#x40;" d="M 253.282,127.989c0-9.641-5.252-18.022-12.936-22.652l0-0.094 
			l-199.044-114.921L 41.303,265.656 l 199.044-114.921l0-0.094 C 248.030,146.010, 253.282,137.653, 253.282,127.989z"  />
<glyph unicode="&#x41;" d="M 160.023,213.331c-45.688,0-82.684-38.193-82.684-85.32
					c0-47.145, 36.992-85.35, 82.684-85.35c 45.636,0, 82.632,38.197, 82.632,85.35C 242.654,175.138, 205.662,213.331, 160.023,213.331z
					 M 177.367,124.431l-0.049-0.023l 25.156-25.973c-1.897-7.424-4.623-14.035-7.767-20.055l-34.824,35.979l-34.955-36.096
					c-3.147,6.016-5.918,12.623-7.819,20.028l 25.299,26.116l0,0.023 c 1.894,2.199, 1.803,5.538-0.233,7.639c0,0.049-0.090,0.072-0.090,0.12
					l-24.975,25.758c 1.901,7.447, 4.672,14.057, 7.819,20.077l 34.955-36.073l 34.824,35.953c 3.144-6.012, 5.873-12.649, 7.819-20.077l-24.84-25.634
					c-0.045-0.053-0.090-0.075-0.136-0.12C 175.518,129.969, 175.469,126.63, 177.367,124.431z"  />
<glyph unicode="&#x42;" d="M 118.464,114.982L 118.464,170.266 l-5.824,0 l0-132.563 l-5.011,0 
			c-3.682,1.457-7.401,2.91-10.985,4.676L 96.64,218.296 c 28.194-32.535, 74.146-53.805, 126.212-53.805c 0.572,0, 1.175,0.072, 1.769,0.094
			C 199.221,140.070, 161.886,122.067, 118.464,114.982z"  />
<glyph unicode="&#x43;" d="M 237.519,129.732L 160.098,52.322l-12.224,12.224l 51.426,51.396l0,0
			l 25.995,26.018c 12.152,12.152, 12.152,31.846,0,43.998c-12.152,12.152-31.846,12.152-43.994,0l-26.025-25.999l-41.107-41.129l0,0l-22.509-22.49
			l0,0c-8.425-8.448-8.712-21.865-0.595-29.956c 8.090-8.090, 21.481-7.831, 29.933,0.621l0,0l 65.197,65.167l-0.030,0.023c0,0,0,0, 0.030,0
			c 4.216,4.201, 4.341,10.91, 0.309,14.968c-4.058,4.036-10.767,3.919-14.991-0.309l0,0l0,0L 118.566,93.88l-12.224,12.224l 52.951,52.973
			l0,0c 10.812,10.79, 28.311,10.79, 39.127,0c 10.812-10.79, 10.812-28.311,0-39.1l0,0L 133.225,54.776l0,0
			c-14.848-14.848-38.912-14.848-53.783,0c-14.848,14.844-14.848,38.908,0,53.779l0,0L 169.080,198.178c 18.903,18.903, 49.559,18.903, 68.442,0
			C 256.425,179.29, 256.425,148.642, 237.519,129.732z"  />
<glyph unicode="&#x44;" d="M 160,224c-53.048,0-96.015-42.97-96.015-95.989
					S 106.955,32, 160,32c 53,0, 96.015,42.993, 96.015,96.011S 213,224, 160,224z M 209.19,116.868l-38.005,0 L 171.181,78.814 
					c-7.304-1.649-14.874-1.694-22.178-0.049L 149.003,116.868 L 110.784,116.868 c-1.626,7.304-1.649,14.848-0.026,22.178l 38.242,0 l0,38.193 
					c 7.304,1.623, 14.874,1.6, 22.178-0.049l0-38.148 l 38.046,0 C 210.854,131.72, 210.854,124.175, 209.19,116.868z"  />
<glyph unicode="&#x45;" d="M 163.765,241.83c-66.432,0-120.286-53.854-120.286-120.26
					c0-66.432, 53.854-120.29, 120.286-120.29c 66.406,0, 120.237,53.854, 120.237,120.29C 284.002,187.972, 230.17,241.83, 163.765,241.83z
					 M 163.716,37.176c-46.588,0-84.371,37.775-84.371,84.393c0,23.319, 9.446,44.435, 24.76,59.704l 13.018-13.015
					c-11.942-11.942-19.332-28.412-19.332-46.637c0-36.386, 29.508-65.894, 65.92-65.894s 65.92,29.508, 65.92,65.894
					c0,36.314-29.361,65.747-65.649,65.894c-0.561-9.201-2.108-17.815-4.894-24.712l-24.689,24.689c-3.057,3.057-3.057,8,0,11.061
					l 24.666,24.666c 2.571-6.336, 4.013-14.167, 4.695-22.509l0,5.237 c 46.588-0.023, 84.318-37.801, 84.318-84.367
					C 248.083,74.952, 210.304,37.176, 163.716,37.176z"  />
<glyph unicode="&#x46;" d="M 164.013,241.83c-66.458,0-120.286-53.854-120.286-120.26
					c0-66.432, 53.828-120.29, 120.286-120.29c 66.406,0, 120.237,53.854, 120.237,120.29C 284.25,187.972, 230.419,241.83, 164.013,241.83z
					 M 243.881,102.163L 83.757,102.163 c-2.202,10.741-2.202,21.798,0,32.542l 160.124,0 C 246.084,123.96, 246.084,112.904, 243.881,102.163z"  />
<glyph unicode="&#x47;" d="M 257.875,143.725c0,0,0-0.026, 0.049-0.049L 213.090,101.184
			l 11.272-60.826c0-0.026,0-0.049-0.053-0.049c 0.478-2.507-0.425-5.18-2.624-6.758c-2.248-1.623-5.105-1.668-7.352-0.403
			c-0.049-0.026-0.049-0.026-0.049-0.049L 160,62.607l-54.283-29.481c-0.026,0-0.049,0.026-0.049,0.026
			c-2.27-1.265-5.131-1.216-7.352,0.403c-2.199,1.604-3.102,4.25-2.677,6.758c0,0.023-0.023,0.023-0.045,0.049l 11.29,60.826
			L 62.076,143.676c0,0.023, 0.023,0.049, 0.023,0.072c-1.909,1.743-2.744,4.484-1.886,7.115c 0.84,2.601, 3.106,4.318, 5.681,4.627
			c0,0.026,0,0.049,0,0.075l 61.282,8.045l 26.571,55.718c0,0, 0.023,0, 0.049,0c 1.073,2.387, 3.437,4.036, 6.204,4.036
			s 5.105-1.649, 6.204-4.036c0,0, 0.023,0, 0.049,0l 26.549-55.718l 61.304-8.045c0-0.026,0-0.049,0-0.075
			c 2.53-0.309, 4.819-2.029, 5.681-4.627C 260.646,148.232, 259.784,145.487, 257.875,143.725z"  />
<glyph unicode="&#x48;" d="M 227.569,147.994l 0.286,0 L 164.548-2.281l0,0
			c-0.764-1.792-2.53-3.034-4.578-3.034c-2.007,0-3.776,1.242-4.533,3.034l0,0L 92.122,147.994l 0.286,0 
			c-3.347,8.331-5.203,17.4-5.203,26.903c0,40.222, 32.557,72.809, 72.809,72.809c 40.2,0, 72.757-32.584, 72.757-72.809
			C 232.772,165.395, 230.912,156.326, 227.569,147.994z M 160.011,210.225c-19.528,0-35.336-15.827-35.336-35.332s 15.804-35.309, 35.336-35.309
			c 19.482,0, 35.283,15.804, 35.283,35.309S 179.494,210.225, 160.011,210.225z"  />
<glyph unicode="&#x49;" d="M 261.489,138.564L 200.237,77.312
			c-13.749-13.771-34.421-16.113-50.752-7.469l-35.855-35.832c-16.9-16.9-44.307-16.9-61.256,0c-16.9,16.926-16.9,44.329,0,61.256
			l 61.256,61.229c 13.798,13.775, 34.424,16.139, 50.801,7.496l 35.81,35.81c 16.949,16.926, 44.356,16.926, 61.256,0
			C 278.389,182.893, 278.389,155.464, 261.489,138.564z M 128.956,141.188L 67.701,79.936c-8.452-8.452-8.452-22.155,0-30.603
			c 8.448-8.478, 22.152-8.478, 30.603,0l 35.042,34.997c-10.933,16.806-9.073,39.507, 5.681,54.234l 8.644,8.64
			C 141.033,148.254, 134.065,146.274, 128.956,141.188z M 246.167,184.493c-8.452,8.452-22.155,8.452-30.603,0l-35-35.019
			c0-0.026,0-0.049, 0.049-0.075l-16.136-16.113c0,0.026,0,0.075,0,0.094l-10.168-10.12c-0.094-0.143-0.192-0.312-0.286-0.429
			l-1.385-1.359l 0.192-0.218c-4.725-6.016-5.967-13.888-3.392-20.811l 10.123,10.12c 0.715,0.693, 1.148,1.528, 1.717,2.293l 0.286-0.312
			l 24.444,24.471c 3.87-14.445, 0.192-30.438-11.125-41.754l-8.64-8.64c 6.588-1.050, 13.602,0.904, 18.718,6.016l 61.21,61.229
			C 254.664,162.338, 254.664,176.045, 246.167,184.493z"  />
<glyph unicode="&#x4a;" d="M 202.549,78.697C 162.014,38.155, 116.853,11.953, 81.641,5.455
			c-13.248,6.182-25.784,14.49-37.402,24.516l 54.999,48.678c 5.749-4.175, 11.554-8.072, 17.449-11.317l 0.218,0.215
			c 12.529-5.726, 39.816,7.496, 64.497,32.203c 24.73,24.708, 37.96,51.994, 32.226,64.523l 0.241,0.218c-3.249,5.873-7.164,11.697-11.366,17.449
			l 48.742,55.025c 10.025-11.629, 18.338-24.184, 24.538-37.455C 269.248,164.299, 243.038,119.206, 202.549,78.697z"  />
<glyph unicode="&#x4b;" d="M 252.766,37.041L 174.253,37.041 L 121.182-16.053L 121.182,37.041 L 67.211,37.041 
			c-7.33,0-13.248,5.944-13.248,13.248L 53.96,193.186 c0,7.326, 5.918,13.271, 13.248,13.271l 185.555,0 c 7.326,0, 13.271-5.944, 13.271-13.271l0-142.901 
			C 266.040,42.985, 260.092,37.041, 252.766,37.041z M 108.39,163.294l-13.101-28.48c-2.485-5.417-3.177-7.902-3.177-10.624
			c0-5.632, 3.866-9.931, 10.168-9.931c 6.351,0, 10.65,4.296, 10.65,9.931c0,3.392-1.577,6.328-4.085,7.925l 8.139,31.176L 108.39,163.294 z
			 M 143.435,163.294l-13.128-28.48c-2.485-5.417-3.155-7.902-3.155-10.624c0-5.632, 3.844-9.931, 10.172-9.931c 6.325,0, 10.62,4.296, 10.62,9.931
			c0,3.392-1.6,6.328-4.081,7.925L 152.023,163.294L 143.435,163.294 z M 182.75,130.018c-6.328,0-10.624-4.296-10.624-9.958
			c0-3.388, 1.577-6.325, 4.058-7.902l-8.113-31.198l 8.591,0 l 13.082,28.48c 2.507,5.414, 3.177,7.921, 3.177,10.62
			C 192.919,125.722, 189.075,130.018, 182.75,130.018z M 217.769,130.018c-6.302,0-10.601-4.296-10.601-9.958c0-3.388, 1.577-6.325, 4.062-7.902
			l-8.139-31.198l 8.591,0 l 13.101,28.48c 2.485,5.414, 3.155,7.921, 3.155,10.62C 227.938,125.722, 224.124,130.018, 217.769,130.018z"  />
<glyph unicode="&#x4c;" d="M 175.925,98.402c-7.473-6.321-17.382-7.017-18.488-7.078l-0.489-0.030l-0.486,0.023
			c-1.536,0.079-9.491,0.693-15.153,5.128l-0.625,0.546C 136.373,101.026, 71.496,164.992, 50.229,185.965l0-140.296 c0-5.899, 4.774-10.65, 10.669-10.65
			l 192.075,0 c 5.892,0, 10.673,4.747, 10.673,10.65L 263.642,186.522 L 175.925,98.402zM 153.099,111.142c 0.787-0.425, 2.579-0.84, 3.787-0.986c 1.442,0.192, 4.604,0.862, 6.626,2.413l 92.119,92.574
			c-0.862,0.222-1.736,0.376-2.662,0.376L 60.898,205.515 c-1.111,0-2.153-0.218-3.155-0.531C 88.836,174.31, 146.376,117.594, 153.099,111.142z"  />
<glyph unicode="&#x4d;" d="M 214.17,183.1l0-85.399 c0-11.912-9.668-21.576-21.553-21.576
			l-85.308,0 l-0.192,0.192l 106.929,106.906L 214.17,183.1z"  />
<glyph unicode="&#x4e;" d="M 319.891,211.618l0-4.284 C 320.181,208.745, 320.181,210.202, 319.891,211.618zM 63.194,214.261c-7.304,0-13.271-5.944-13.271-13.248l0-142.92 c0-7.304, 5.967-13.248, 13.271-13.248l 53.948,0 
			l0-53.090 l 53.090,53.090l 78.539,0 c 7.3,0, 13.222,5.944, 13.222,13.248l0,127.902 L 188.424,185.995 c-1.909,9.261-1.909,18.835,0,28.122l0,0.143 L 63.194,214.261 zM 284.774,249.235c-2.628,2.624-6.253,3.415-9.645,2.722l0-28.503 L 200.079,223.454 
			c-0.621-3.034-0.715-6.11-0.956-9.19l-0.019,0 l0-0.143 l 0.019,0 c-0.429-6.28-0.335-12.604, 0.956-18.786l 75.049,0 l0-28.337 
			c 3.392-0.696, 7.017,0.072, 9.645,2.722l 32.226,32.226c 1.528,1.528, 2.485,3.415, 2.891,5.387l0,4.284 
			c-0.403,1.976-1.359,3.863-2.891,5.387L 284.774,249.235z"  />
<glyph unicode="&#x4f;" d="M 304.892,188.48L 229.839,188.48 l0-28.337 
			c-3.396-0.693-7.017,0.075-9.649,2.726l-32.218,32.226c-4.156,4.152-4.156,10.906,0,15.063l 32.218,32.222
			c 2.632,2.628, 6.253,3.415, 9.649,2.726l0-28.503 l 75.053,0 C 306.797,207.319, 306.797,197.745, 304.892,188.48z M 225.592,143.198
			c 3.912-3.893, 9.261-5.037, 14.272-4.009L 239.864,177.807 l 8.497,0 l0-126.569 c0-7.304-5.967-13.248-13.271-13.248L 156.552,37.99 L 103.48-15.096L 103.48,37.993 L 49.51,37.993 
			c-7.304,0-13.248,5.941-13.248,13.248l0,142.92 c0,7.304, 5.941,13.248, 13.248,13.248l 124.902,0 c-2.059-5.587-0.956-12.081, 3.531-16.568
			L 225.592,143.198z"  />
<glyph unicode="&#x50;" d="M 149.5,71.951c-5.775-5.775-14.611-6.611-21.338-2.624
			l-33.705,45.395l 12.22,14.37l 26.165-35.543c 0.049-0.049, 0.072-0.094, 0.117-0.143c 2.221-2.221, 5.752-2.27, 8.072-0.218l 0.023-0.023
			l 83.211,97.483l0-29.862 L 149.5,71.951z"  />
<glyph unicode="&#x51;" d="M 226.323,235.96l-131.403,0 c-22.558,0-40.843-18.285-40.843-40.866
					l0-131.381 c0-22.554, 18.281-40.862, 40.843-40.862l 131.403,0 c 22.554,0, 40.843,18.308, 40.843,40.862L 267.166,195.098 
					C 267.162,217.679, 248.881,235.96, 226.323,235.96z"  />
<glyph unicode="&#x52;" d="M 226.323,235.96l-131.403,0 c-22.558,0-40.843-18.285-40.843-40.866
					l0-131.381 c0-22.554, 18.281-40.862, 40.843-40.862l 131.403,0 c 22.554,0, 40.843,18.308, 40.843,40.862L 267.166,195.098 
					C 267.162,217.679, 248.881,235.96, 226.323,235.96z M 248.354,68.183c0-14.633-11.863-26.496-26.496-26.496L 99.023,41.687 
					c-14.66,0-26.522,11.863-26.522,26.496L 72.501,191.017 c0,14.656, 11.863,26.519, 26.522,26.519l 122.835,0 c 14.633,0, 26.496-11.863, 26.496-26.519L 248.354,68.183 z"  />
<glyph unicode="&#x53;" d="M 245.715,185.495l 24.828-24.851
			c-1.867-7.496-4.585-14.249-7.928-20.149l-31.56,31.56l-31.601-31.605c-3.347,5.896-6.114,12.604-7.974,20.104l 25.069,25.088l0,0.026 
			c 0.279,0.309, 0.425,0.335, 0.617,0.429c-0.241,0.094-0.478,0.166-0.809,0.501c-0.053,0.049-0.094,0.072-0.147,0.117l-24.73,24.73
			c 1.912,7.447, 4.627,14.11, 7.974,19.987l 31.462-31.462l 31.601,31.605c 3.302-5.85, 6.061-12.506, 7.974-19.938l-25.114-25.088l 0.053,0 
			c-0.286-0.309-0.433-0.358-0.625-0.452c 0.241-0.075, 0.433-0.143, 0.817-0.504C 245.617,185.54, 245.662,185.521, 245.715,185.495z
			 M 197.399,45.752l 0.233-0.237c 6.498,3.584, 12.89,7.88, 19.241,12.484l 60.634-53.711c-12.792-11.053-26.643-20.1-41.254-26.925
			c-38.81,7.16-88.538,36.021-133.203,80.685C 58.44,102.664, 29.576,152.339, 22.366,191.13c 6.825,14.633, 15.921,28.529, 26.978,41.321
			l 53.756-60.683c-4.627-6.328-8.93-12.747-12.506-19.215l 0.237-0.237c-6.28-13.824, 8.26-43.855, 35.501-71.093
			C 153.566,54.012, 183.597,39.447, 197.399,45.752z"  />
<glyph unicode="&#x54;" d="M 161.126,181.982c-2.229,10.842-2.229,22.039,0,32.862l 78.78,0 
			l0,33.303 c 3.979,0.817, 8.196-0.079, 11.298-3.162l 37.636-37.636c 4.853-4.872, 4.853-12.77,0-17.626L 251.204,152.064
			c-3.102-3.083-7.319-3.979-11.298-3.185l0,33.103 L 161.126,181.982 z M 213.075,44.141l 0.237-0.256c 7.243,3.957, 14.325,8.813, 21.323,13.963
			l 67.162-59.46c-14.163-12.299-29.282-22.818-45.432-30.381c-43.208,7.959-98.59,40.105-148.326,89.818
			C 58.387,107.501, 26.24,162.801, 18.202,205.993c 7.639,16.215, 18.142,31.352, 30.479,45.553l 59.516-67.2c-5.169-7.021-10.025-14.103-14.001-21.323
			l 0.233-0.26c-6.999-15.356, 9.231-48.817, 39.548-79.13C 164.296,53.331, 197.719,37.116, 213.075,44.141z"  />
<glyph unicode="&#x55;" d="M 212.040,181.982l0-33.103 c-3.979-0.794-8.196,0.098-11.298,3.185
			L 163.106,189.719c-4.853,4.853-4.853,12.751,0,17.626l 37.636,37.636c 3.102,3.083, 7.319,3.979, 11.298,3.162l0-33.303 l 78.78,0 
			c 2.229-10.824, 2.229-22.020,0-32.862L 212.040,181.978 z M 213.075,44.141l 0.237-0.256c 7.243,3.957, 14.325,8.813, 21.323,13.963l 67.162-59.46
			c-14.163-12.299-29.282-22.818-45.432-30.381c-43.208,7.959-98.59,40.105-148.326,89.818C 58.387,107.501, 26.24,162.801, 18.202,205.993
			c 7.639,16.215, 18.142,31.352, 30.479,45.553l 59.516-67.2c-5.169-7.021-10.025-14.103-14.001-21.323l 0.233-0.26
			c-6.999-15.356, 9.231-48.817, 39.548-79.13C 164.296,53.331, 197.719,37.116, 213.075,44.141z"  />
<glyph unicode="&#x56;" d="M 235.373,127.793L 235.373,233.626 c 4.616,0.497, 9.393,0.813, 14.242,0.813
			c 4.856,0, 9.547-0.316, 14.242-0.813l0-105.833 c-4.695-0.497-9.385-0.817-14.242-0.817C 244.766,126.976, 239.989,127.296, 235.373,127.793z
			 M 302.532-1.611c-14.163-12.299-29.278-22.818-45.515-30.381c-43.128,7.959-98.511,40.105-148.243,89.818
			C 59.121,107.501, 26.974,162.801, 18.94,205.993c 7.601,16.215, 18.142,31.352, 30.434,45.553l 59.52-67.2
			c-5.128-7.021-9.984-14.103-13.963-21.323l 0.237-0.26c-6.999-15.356, 9.231-48.817, 39.507-79.13
			c 30.317-30.302, 63.782-46.513, 79.134-39.488l 0.241-0.256c 7.24,3.957, 14.317,8.813, 21.32,13.963L 302.532-1.611z M 181.7,127.793L 181.7,233.626 
			c 4.657,0.497, 9.355,0.813, 14.204,0.813c 4.856,0, 9.63-0.316, 14.242-0.813l0-105.833 c-4.616-0.497-9.385-0.817-14.242-0.817
			C 191.055,126.976, 186.357,127.296, 181.7,127.793z"  />
<glyph unicode="&#x57;" d="M 267.599,141.237l-27.106,0 l0-27.132 
			c-5.44-1.329-7.413-1.318-12.853,0.019l0,27.117 l-27.072,0 c-1.329,5.432-1.329,7.401,0,12.826l 27.072,0 l0,27.080 
			c 5.44,1.333, 7.413,1.344, 12.853,0.008l0-27.091 l 27.106,0 C 268.924,148.638, 268.924,146.665, 267.599,141.237z M 138.195,135.096
			c-23.849,0-43.151,19.328-43.151,43.166c0,23.838, 19.302,43.166, 43.151,43.166c 23.846,0, 43.185-19.328, 43.185-43.166
			C 181.376,154.417, 162.040,135.096, 138.195,135.096z M 138.229,90.364l 32.979,32.986c 25.208-8.565, 42.609-26.56, 42.609-47.443
			c0-0.008,0-0.008,0-0.008l 0.038,0 c0-20.954-4.152-40.452-11.245-57.069L 73.811,18.831 c-7.089,16.617-11.279,36.115-11.279,57.069l 0.034,0 
			c0,0,0,0,0,0.008c0,20.887, 17.442,38.897, 42.65,47.454L 138.229,90.364z"  />
<glyph unicode="&#x58;" d="M 268.431,34.583c-10.865-9.382-22.664-17.080-35.072-22.882
			c-33.001,6.088-75.264,30.615-113.22,68.585C 82.217,118.212, 57.69,160.448, 51.569,193.416c 5.801,12.431, 13.515,24.241, 22.916,35.136
			l 45.692-51.599c-3.923-5.38-7.575-10.824-10.616-16.335l 0.196-0.196c-5.335-11.738, 7.017-37.274, 30.167-60.427
			c 23.149-23.138, 48.681-35.516, 60.427-30.159l 0.2-0.2c 5.512,3.038, 10.959,6.686, 16.346,10.609L 268.431,34.583z"  />
<glyph unicode="&#x59;" d="M 267.859,110.95l-39.209-39.191
			c-3.185-3.208-7.62-4.141-11.746-3.294l0,31.823 L 103.093,100.288 l0-31.823 c-4.137-0.851-8.542,0.087-11.765,3.294l-39.172,39.191
			c-5.086,5.067-5.086,13.274,0,18.345l 39.172,39.198c 3.223,3.208, 7.624,4.134, 11.765,3.294l0-31.688 l 113.811,0 l0,31.688 
			c 4.122,0.843, 8.561-0.090, 11.746-3.294l 39.209-39.198C 272.907,124.228, 272.907,116.017, 267.859,110.95z"  />
<glyph unicode="&#x5a;" d="M 238.731,87.119c-1.111,6.889-2.432,13.632-4.205,20.032
			c-0.087,0.388-0.162,0.764-0.286,1.141c-0.053,0.207-0.087,0.429-0.158,0.625l-0.090,0 c-5.135,13.832-36.040,24.474-73.495,24.474
			c-37.451,0-68.356-10.647-73.472-24.474l-0.109,0 c-0.053-0.207-0.105-0.429-0.158-0.636c-0.109-0.365-0.2-0.73-0.271-1.111
			c-1.792-6.396-3.113-13.146-4.201-20.051L 3.607,82.349c 1.197,16.418, 4.51,32.203, 9.864,46.953c 31.616,21.707, 85.617,36.032, 146.974,36.032
			c 61.391,0, 115.426-14.347, 147.042-36.096c 5.353-14.735, 8.648-30.494, 9.845-46.889L 238.731,87.119z M 209.781,58.876L 111.081,58.876 
			c-18.248,0-34.127,9.931-42.684,24.644l 184.049,0 C 243.923,68.808, 228.028,58.876, 209.781,58.876z"  />
<glyph unicode="&#x5b;" d="M 208.621,135.209L 208.621,224.727 c 3.814,0.429, 7.714,0.708, 11.708,0.708
			c 4.009,0, 7.913-0.275, 11.746-0.708l0-89.517 c-3.836-0.429-7.736-0.7-11.746-0.7C 216.335,134.509, 212.431,134.776, 208.621,135.209z
			 M 268.435,50.466c-10.869-9.382-22.664-17.099-35.072-22.897c-32.983,6.103-75.268,30.622-113.224,68.593
			C 82.221,134.088, 57.69,176.312, 51.569,209.291c 5.798,12.435, 13.515,24.241, 22.916,35.14l 45.692-51.603
			c-3.923-5.38-7.575-10.824-10.62-16.335l 0.2-0.2c-5.335-11.738, 7.017-37.282, 30.17-60.427c 23.145-23.138, 48.681-35.516, 60.427-30.159
			l 0.177-0.207c 5.515,3.046, 10.959,6.694, 16.365,10.616L 268.435,50.466z M 168.331,135.209L 168.331,224.727 c 3.836,0.429, 7.736,0.708, 11.746,0.708
			c 4.013,0, 7.917-0.275, 11.75-0.708l0-89.517 c-3.836-0.429-7.736-0.7-11.75-0.7C 176.072,134.509, 172.168,134.776, 168.331,135.209z"  />
<glyph unicode="&#x5c;" d="M 229.519,65.069L 229.519,65.069l0-0.248 L 90.481,64.821 l0,0.248 
			c-30.615,0-55.394,24.806-55.394,55.394s 24.779,55.375, 55.394,55.375c 30.577,0, 55.356-24.787, 55.356-55.375
			c0-15.183-6.084-28.924-16.004-38.923l 60.333,0 c-9.882,9.999-16.004,23.74-16.004,38.923c0,30.588, 24.779,55.375, 55.356,55.375
			c 30.615,0, 55.394-24.787, 55.394-55.375S 260.134,65.069, 229.519,65.069z M 90.481,157.38c-20.412,0-36.92-16.527-36.92-36.92
			s 16.508-36.92, 36.92-36.92c 20.375,0, 36.92,16.527, 36.92,36.92S 110.852,157.38, 90.481,157.38z M 229.519,157.38
			c-20.375,0-36.92-16.527-36.92-36.92s 16.542-36.92, 36.92-36.92c 20.412,0, 36.951,16.527, 36.951,36.92S 249.931,157.38, 229.519,157.38z"  />
<glyph unicode="&#x5d;" d="M 289.83,106.684L 241.114,106.684 l0-23.356 
			c-2.816-0.572-5.798,0.056-7.966,2.232l-26.59,26.575c-3.433,3.441-3.433,9.009,0,12.442l 26.59,26.586
			c 2.168,2.176, 5.15,2.812, 7.966,2.24l0-23.514 l 48.712,0 C 291.403,122.24, 291.403,114.342, 289.83,106.684z M 186.665,157.463
			c-2.168-2.176-5.158-2.812-7.966-2.251l0,23.375 L 129.984,178.586 c-1.577,7.654-1.577,15.548,0,23.202l 48.715,0 l0,23.514 
			c 2.808,0.572, 5.798-0.064, 7.966-2.24l 26.583-26.586c 3.441-3.437, 3.441-9.005,0-12.442L 186.665,157.463z M 173.38,63.797l 0.2-0.2
			c 5.357,2.974, 10.635,6.517, 15.868,10.315l 50.037-44.314c-10.564-9.114-22.005-16.595-34.052-22.216c-32.015,5.907-73.050,29.719-109.896,66.564
			c-36.811,36.804-60.604,77.794-66.552,109.798c 5.64,12.070, 13.124,23.526, 22.253,34.089l 44.329-50.059c-3.795-5.237-7.337-10.519-10.293-15.864
			l 0.2-0.196c-5.192-11.388, 6.803-36.183, 29.267-58.635C 137.216,70.615, 161.995,58.605, 173.38,63.797z"  />
<glyph unicode="&#x5e;" d="M 271.398,50.707l-10.135,6.607
			c 7.661,20.503, 11.889,42.703, 11.889,65.886s-4.224,45.376-11.889,65.886l 10.135,6.615c 8.734-22.475, 13.534-46.923, 13.534-72.501
			C 284.932,97.634, 280.132,73.197, 271.398,50.707z M 225.276,80.821c 4.013,13.417, 6.231,27.648, 6.231,42.379c0,14.743-2.221,28.958-6.231,42.379
			l 7.447,4.887c 4.762-14.904, 7.375-30.776, 7.375-47.266c0-16.478-2.613-32.35-7.375-47.247L 225.276,80.821z M 193.156,101.79
			c 1.359,6.931, 2.078,14.080, 2.078,21.41s-0.715,14.487-2.078,21.417l 4.653,3.038c 1.683-7.887, 2.613-16.060, 2.613-24.456
			c0-8.388-0.93-16.557-2.613-24.444L 193.156,101.79z M 85.594,67.9l-34.413,0 c-8.919,0-16.113,7.194-16.113,16.094L 35.068,162.436 
			c0,8.9, 7.194,16.113, 16.113,16.113l 34.447,0 l 54.852,54.856c 6.088,6.076, 14.035,9.103, 21.986,9.084l0-238.6 
			c-7.947-0.019-15.898,3.027-21.986,9.077L 85.594,67.9z"  />
<glyph unicode="&#x5f;" d="M 259.787,125.188l 26.21-26.214c 5.798-5.809, 5.798-15.217,0-21.015
			L 241.352,33.306l0,21.481 l0,17.69 l0,34.274 l-33.626-33.596c-0.248-0.248-0.538-0.467-0.809-0.681l-0.301,0 l0-0.248 
			c-0.309-0.252-0.595-0.542-0.919-0.753c-1.822,5.135-3.471,10.568-4.917,16.203l 37.489,37.481l-37.549,37.534
			c 1.457,5.655, 3.102,11.091, 4.924,16.245c 0.339-0.233, 0.648-0.538, 0.971-0.798l0-0.215 l 0.248,0 c 0.286-0.241, 0.587-0.437, 0.862-0.708
			l 33.626-33.604L 241.352,177.931 l0,17.6 l0,21.53 l 44.649-44.646c 5.798-5.798, 5.798-15.206,0-21.015L 259.787,125.188z M 256.776,70.227l 14.897,14.904
			l-0.038,0.019c 1.758,1.961, 1.72,4.954-0.177,6.837c-0.038,0.038-0.075,0.064-0.109,0.105l-14.573,14.554L 256.776,70.227 z M 271.462,165.429
			c-0.038,0.045-0.075,0.072-0.109,0.105l-14.573,14.562l0-36.416 l 14.897,14.886l-0.038,0.019C 273.393,160.55, 273.359,163.546, 271.462,165.429z
			 M 80.177,69.884l-34.417,0 c-8.915,0-16.109,7.217-16.109,16.105L 29.651,164.431 c0,8.9, 7.194,16.113, 16.109,16.113l 34.447,0 l 54.874,54.856
			c 6.069,6.076, 14.035,9.107, 22.005,9.088l0-238.611 c-7.966,0-15.932,3.027-22.005,9.096L 80.177,69.884z"  />
<glyph unicode="&#x60;" d="M 265.288,116.988c-1.096-4.744-5.12-8.354-10.21-8.361l0-0.011 
			l-25.909,0 l-0.015,0.011c-5.071,0.008-9.099,3.618-10.172,8.361l-0.248,0.188c-1.958,10.229-3.294,21.779-3.832,34.21l 54.438,0 
			c-0.516-12.427-1.875-23.981-3.844-34.21L 265.288,116.988z M 265.288,204.981c-1.096-4.744-5.12-8.35-10.21-8.361l0-0.008 l-25.909,0 
			l-0.015,0.008c-5.071,0.011-9.099,3.618-10.172,8.361l-0.248,0.192c-1.958,10.225-3.294,21.775-3.832,34.206l 54.438,0 
			c-0.516-12.427-1.875-23.981-3.844-34.206L 265.288,204.981z M 183.142,28.984c-1.073-4.728-5.12-8.346-10.172-8.346l-0.030-0.034l-25.89,0 
			l-0.019,0.034c-5.067,0-9.114,3.618-10.187,8.346l-0.233,0.196c-1.954,10.225-3.313,21.79-3.848,34.217l 54.456,0 
			c-0.538-12.424-1.897-23.992-3.832-34.217L 183.142,28.984z M 183.142,116.988c-1.073-4.744-5.12-8.354-10.172-8.361l-0.030-0.011l-25.89,0 
			l-0.019,0.011c-5.067,0.008-9.114,3.618-10.187,8.361l-0.233,0.188c-1.954,10.229-3.313,21.779-3.848,34.21l 54.456,0 
			c-0.538-12.427-1.897-23.981-3.832-34.21L 183.142,116.988z M 183.142,204.981c-1.073-4.744-5.12-8.35-10.172-8.361l-0.030-0.008l-25.89,0 
			l-0.019,0.008c-5.067,0.011-9.114,3.618-10.187,8.361l-0.233,0.192c-1.954,10.225-3.313,21.775-3.848,34.206l 54.456,0 
			c-0.538-12.427-1.897-23.981-3.832-34.206L 183.142,204.981z M 101.018,28.984c-1.096-4.728-5.12-8.346-10.191-8.346l0-0.034 l-25.924,0 l0,0.034 
			c-5.086,0-9.114,3.618-10.187,8.346l-0.233,0.196c-1.969,10.225-3.313,21.79-3.832,34.217l 54.423,0 
			c-0.52-12.424-1.86-23.992-3.832-34.217L 101.018,28.984z M 101.018,116.988c-1.096-4.744-5.12-8.354-10.191-8.361l0-0.011 l-25.924,0 l0,0.011 
			c-5.086,0.008-9.114,3.618-10.187,8.361l-0.233,0.188c-1.969,10.229-3.313,21.779-3.832,34.21l 54.423,0 
			c-0.52-12.427-1.86-23.981-3.832-34.21L 101.018,116.988z M 101.018,204.981c-1.096-4.744-5.12-8.35-10.191-8.361l0-0.008 l-25.924,0 l0,0.008 
			c-5.086,0.011-9.114,3.618-10.187,8.361l-0.233,0.192c-1.969,10.225-3.313,21.775-3.832,34.206l 54.423,0 
			c-0.52-12.427-1.86-23.981-3.832-34.206L 101.018,204.981z M 265.502,29.18l-0.215-0.196c-1.096-4.728-5.12-8.346-10.21-8.346l0-0.034 
			l-25.909,0 l-0.015,0.034c-5.071,0-9.099,3.618-10.172,8.346l-0.248,0.196c-1.958,10.225-3.294,21.79-3.832,34.217l 54.438,0 
			C 268.826,50.97, 267.467,39.401, 265.502,29.18z"  />
<glyph unicode="&#x61;" d="M 275.437,244.344L 73.577,42.5
			c-6.867,4.518-12.74,10.413-17.257,17.276l 41.163,41.182c-0.034,0.437-0.105,0.858-0.105,1.303L 97.378,165.082 
			c 5.015,3.784, 10.319,7.187, 15.921,10.116l0-58.421 l 13.963,13.963L 127.262,218.748 c0,21.515, 17.453,38.965, 38.976,38.965s 38.976-17.453, 38.976-38.965
			l0-10.063 L 258.153,261.609C 265.016,257.096, 270.904,251.215, 275.437,244.344z M 130.131,88.922l 75.091,75.102l0-60.6 
			c0-21.534-17.453-38.968-38.976-38.968C 149.843,64.452, 135.891,74.594, 130.131,88.922z M 166.246,49.329c 29.244,0, 52.947,23.699, 52.947,52.947
			c0,0.008,0,0.008,0,0.019l0,0L 219.189,175.194 c 5.602-2.925, 10.888-6.332, 15.917-10.116L 235.106,102.261 c0-32.414-22.43-59.528-52.604-66.839l0-31.277 l 24.038,0 
			l0-7.721 L 182.505-3.576 l-32.414,0 l-24.158,0 l0,7.721 l 24.158,0 l0,31.24 c-17.965,4.307-33.035,15.759-42.443,31.063l 11.723,11.704
			C 128.154,61.109, 145.747,49.329, 166.246,49.329z"  />
<glyph unicode="&#x62;" d="M 222.871,121.476l 10.176,10.172c-16.504,22.042-42.741,36.378-72.384,36.378c-29.617,0-55.823-14.298-72.328-36.311l 13.907-13.896
					c 12.796,18.541, 34.184,30.705, 58.417,30.705c 22.66,0, 42.824-10.639, 55.816-27.166c-7.115-0.757-13.64-3.445-19.106-7.484
					c-9.355,9.487-22.332,15.383-36.713,15.383c-18.944,0-35.448-10.217-44.454-25.412l 14.543-14.536c 4.676,11.991, 16.271,20.514, 29.907,20.514
					c 9.762,0, 18.409-4.401, 24.282-11.268c-2.259-4.954-3.546-10.443-3.546-16.241c0-21.711, 17.592-39.296, 39.285-39.296
					s 39.285,17.589, 39.285,39.296C 259.968,103.258, 243.539,120.335, 222.871,121.476z M 226.421,47.955l-11.885,0 L 214.539,91.501 l 11.885,0 L 226.421,47.955 z
					 M 225.352,98.447c-1.088-1.016-2.711-1.528-4.856-1.528c-4.314,0-6.468,1.943-6.468,5.835c0,3.874, 2.15,5.805, 6.468,5.805
					s 6.468-1.935, 6.468-5.805C 226.955,100.909, 226.421,99.475, 225.352,98.447z M 246.788,145.397l 13.918,13.918
					c-23.703,28.969-59.708,47.465-100.051,47.465c-40.316,0-76.299-18.473-99.987-47.398l 13.918-13.918
					c 20.085,25.434, 51.147,41.818, 86.069,41.818C 195.625,187.283, 226.688,170.876, 246.788,145.397z M 160.655,90.496
					c-7.127,0-12.92-5.79-12.92-12.936c0-7.115, 5.794-12.913, 12.92-12.913c 7.138,0, 12.924,5.798, 12.924,12.913
					C 173.583,84.706, 167.8,90.496, 160.655,90.496z"  />
<glyph unicode="&#x63;" d="M 191.635,221.365l 0.38,0.38L 102.408,221.745 c-3.727,0-6.758-3.023-6.758-6.746l0-188.996 c0-3.742, 3.034-6.761, 6.758-6.761l 121.495,0 
					c 3.727,0, 6.746,3.023, 6.746,6.761L 230.648,182.347 L 191.635,221.365z M 165.651,133.003l 19.994,0 l0-28.755 l-19.994,0 L 165.651,133.003 z M 140.653,133.003l 19.994,0 l0-28.755 
					l-19.994,0 L 140.653,133.003 z M 115.652,120.501c0,6.901, 5.594,12.495, 12.495,12.495l 7.496,0 l0-28.755 l-19.994,0 L 115.652,120.501 z M 135.646,37.993l-7.496,0 
					c-6.901,0-12.495,5.591-12.495,12.506l0,16.248 l 19.994,0 L 135.646,37.993 z M 160.644,37.993l-19.994,0 l0,28.759 l 19.994,0 L 160.644,37.993 z M 185.641,37.993l-19.994,0 
					l0,28.759 l 19.994,0 L 185.641,37.993 z M 210.65,50.507c0-6.916-5.594-12.506-12.495-12.506l-7.507,0 l0,33.589 L 118.46,71.586 l0,0.162 l-2.808,0 l0,27.512 L 210.65,99.26 L 210.65,50.507 z
					 M 210.65,104.245l-20.006,0 L 190.648,133.003 l 7.507,0 c 6.901,0, 12.495-5.594, 12.495-12.495L 210.65,104.245 z"  />
<glyph unicode="&#x64;" d="M 234.549,162.673L 96.497,162.673 l 108.856,62.84c-0.087,1.367-0.471,2.752-1.205,4.028c-0.738,1.276-1.751,2.308-2.903,3.068
					l-133.775-77.237c 0.064-1.167, 0.407-2.312, 0.937-3.411c-1.743-3.072-2.752-6.611-2.752-10.398l0-97.126 c0-11.667, 4.454-21.105, 16.113-21.105
					l 152.776,0 c 11.652,0, 21.101,9.446, 21.101,21.105L 255.654,141.568 C 255.654,153.227, 246.2,162.673, 234.549,162.673z M 145.826,138.296l 29.673,0 
					c 4.028-0.915, 7.921-2.146, 11.652-3.738L 134.178,134.562 C 137.894,136.154, 141.801,137.382, 145.826,138.296z M 116.488,123.305l 88.35,0 
					c 1.367-1.208, 2.699-2.443, 3.964-3.761L 112.512,119.548 C 113.777,120.862, 115.121,122.097, 116.488,123.305z M 103.774,108.311l 113.773,0 
					c 0.764-1.25, 1.547-2.462, 2.229-3.757L 101.538,104.553 C 102.231,105.848, 103.014,107.061, 103.774,108.311z M 224.538,93.297
					c 0.38-1.212, 0.681-2.485, 1.009-3.742L 95.782,89.555 c 0.328,1.257, 0.629,2.53, 1.009,3.742L 224.538,93.297 z M 106.248,42.782
					c-9.679,0-17.525,7.834-17.525,17.528c0,9.664, 7.846,17.521, 17.525,17.521c 9.675,0, 17.532-7.857, 17.532-17.521
					C 123.784,50.616, 115.927,42.782, 106.248,42.782z M 190.675,56.184c0-0.493-0.568-0.896-1.276-0.896L 131.93,55.288 
					c-0.715,0-1.276,0.403-1.276,0.896l0,8.282 c0,0.471, 0.557,0.873, 1.276,0.873l 57.468,0 c 0.708,0, 1.276-0.403, 1.276-0.873L 190.675,56.184 z
					 M 215.066,42.782c-9.664,0-17.521,7.834-17.521,17.528c0,9.664, 7.857,17.521, 17.521,17.521c 9.69,0, 17.525-7.857, 17.525-17.521
					C 232.595,50.616, 224.76,42.782, 215.066,42.782z"  />
<glyph unicode="&#x65;" d="M 160.433,153.224c-13.896,0-25.167-11.29-25.167-25.212c0-13.948, 11.268-25.239, 25.167-25.239s 25.141,11.29, 25.141,25.239
					C 185.57,141.937, 174.332,153.224, 160.433,153.224z M 262.268,135.213L 239.251,135.213 c-3.426,37.88-33.528,68.062-71.401,71.582l0,23.051 
					c-4.762,0.983-9.664,0.983-14.4,0l0-23.029 c-38.095-3.336-68.424-33.577-71.857-71.605l-22.803,0 c-0.983-4.759-0.983-9.664,0-14.4l 22.803,0 
					c 3.437-38.042, 33.762-68.284, 71.857-71.616l0-22.792 c 4.736-1.005, 9.641-1.005, 14.4,0l0,22.81 C 205.722,52.736, 235.829,82.91, 239.251,120.809
					l 23.017,0 C 263.224,125.549, 263.224,130.451, 262.268,135.213z M 210.044,120.809l 11.264,0 c-3.29-28.009-25.476-50.195-53.459-53.568l0,11.373 
					c-4.762,0.983-9.664,0.983-14.4,0l0-11.445 c-28.232,3.2-50.613,25.483-53.914,53.64l 11.505,0 c 0.96,4.736, 0.96,9.641,0,14.4L 99.531,135.213 
					c 3.309,28.141, 25.687,50.421, 53.914,53.613l0-11.226 c 4.736-0.956, 9.641-0.956, 14.4,0.023l0,11.136 
					c 27.991-3.381, 50.168-25.559, 53.459-53.545l-11.264,0 C 209.043,130.451, 209.043,125.549, 210.044,120.809z"  />
<glyph unicode="&#x66;" d="M 226.959,213.474L 110.468,213.474 l 25.566-25.592l 77.154,0 
					c 4.416,0, 8.023-3.584, 8.023-8.019l0-77.158 l 25.521-25.491L 246.728,193.656 C 246.728,204.593, 237.869,213.474, 226.959,213.474z M 109.417,68.047
					c-4.439,0-8.023,3.629-8.023,8.023L 101.395,153.6 l-25.566,25.544l0-116.83 c0-10.888, 8.858-19.768, 19.791-19.768l 116.687,0 l 0.075,0.049l-25.476,25.449
					L 109.417,68.047 z"  />
<glyph unicode="&#x67;" d="M 243.049,123.238c-0.049,0-0.072,0-0.094,0l0,0L 201.943,123.238 L 123.121,29.124l-15.375,0 
			l 41.058,94.163c-23.917,0.286-45.38,1.958-61.47,4.439l-33.013-32.896l-13.749,0 l 17.905,42.014l 0.335,0 
			c-0.478,0.572-0.764,1.193-0.764,1.815s 0.286,1.242, 0.764,1.864l-0.335,0 L 40.568,182.487l 13.749,0 l 33.013-32.896
			c 16.068,2.485, 37.549,4.152, 61.47,4.439l-41.058,94.152l 15.375,0 l 78.822-94.103l 41.009,0 l0,0c 0.026,0, 0.049,0, 0.094,0
			c 21.508,0, 38.961-6.874, 38.961-15.42C 282.010,130.161, 264.561,123.238, 243.049,123.238z"  />
<glyph unicode="&#x68;" d="M 278.046,145.724c-27.403,34.756-69.749,57.099-117.402,57.099
			c-47.646,0-89.946-22.295-117.353-57.005l-18.955,19c 32.271,39.435, 81.352,64.599, 136.305,64.599c 55.002,0, 104.083-25.208, 136.354-64.689
			L 278.046,145.724z M 259.279,127.010l-18.955-18.959c-17.427,25.306-46.596,41.969-79.684,41.969c-33.035,0-62.204-16.614-79.657-41.871
			l-18.955,18.959c 22.509,29.982, 58.225,49.464, 98.613,49.464C 201.035,176.568, 236.796,157.041, 259.279,127.010z M 160.64,123.761
			c 25.83,0, 48.388-13.99, 60.638-34.756l-19.817-19.863c-6.351,16.422-22.197,28.122-40.824,28.122c-18.616,0-34.421-11.652-40.772-27.979
			l-19.836,19.817C 112.305,109.82, 134.818,123.761, 160.64,123.761z M 160.64,70.912c 9.717,0, 17.623-7.88, 17.623-17.634
			c0-9.739-7.906-17.619-17.623-17.619c-9.739,0-17.619,7.88-17.619,17.619C 143.029,63.032, 150.908,70.912, 160.64,70.912z"  />
<glyph unicode="&#x69;" d="M 160.644,10.718c-64.832,0-117.402,52.506-117.402,117.293
			c0,64.787, 52.57,117.308, 117.402,117.308c 64.836,0, 117.38-52.521, 117.38-117.308C 278.027,63.224, 225.487,10.718, 160.644,10.718z
			 M 160.644,221.971c-51.896,0-94.005-42.063-94.005-93.963c0-51.848, 42.108-93.899, 94.005-93.899c 51.9,0, 93.963,42.052, 93.963,93.899
			L 160.625,128.008 l 66.556,66.319C 210.157,211.418, 186.62,221.971, 160.644,221.971z"  />
<glyph unicode="&#x6a;" d="M 220.687,170.296L 181.805,127.62l 38.882-42.68
			c 9.6-9.457, 9.6-24.779,0-34.232l-67.433-72.67L 153.254,97.634 L 97.807,42.914c-0.429-0.429-0.907-0.764-1.336-1.148l-0.501,0 l0-0.384 
			c-0.504-0.429-0.979-0.858-1.502-1.239c-3.034,8.41-5.752,17.197-8.139,26.413l 61.865,61.015L 86.253,188.676
			c 2.391,9.216, 5.105,18.048, 8.117,26.451c 0.572-0.384, 1.050-0.862, 1.6-1.291l0-0.335 l 0.429,0 c 0.452-0.384, 0.956-0.715, 1.408-1.144
			l 55.447-54.709L 153.254,277.184 l 67.433-72.663C 230.287,195.072, 230.287,179.75, 220.687,170.296z M 178.104,38.14l 23.322,24.264l-0.026,0.049
			c 2.891,3.151, 2.82,8.068-0.286,11.125c-0.072,0.049-0.143,0.094-0.215,0.143l-22.799,23.725L 178.101,38.14 z M 201.114,193.118
			c-0.072,0.094-0.143,0.143-0.215,0.192l-22.799,23.725l0-59.294 l 23.322,24.203l-0.026,0.049C 204.292,185.193, 204.22,190.061, 201.114,193.118z"  />
<glyph unicode="&#x6b;" d="M 149.286,204.521L 81.848,277.184l0-119.548 L 26.394,212.348
					c-0.452,0.429-0.956,0.764-1.434,1.148L 24.553,213.496 L 24.553,213.832 c-0.55,0.429-1.050,0.907-1.6,1.288c-3.034-8.403-5.726-17.235-8.117-26.451
					l 61.922-61.112L 14.908,66.541c 2.391-9.216, 5.109-17.999, 8.117-26.417c 0.527,0.384, 1.005,0.813, 1.528,1.242l0,0.384 l 0.478,0 
					c 0.452,0.384, 0.93,0.712, 1.359,1.144l 55.454,54.728l0-119.608 l 67.437,72.674c 9.574,9.457, 9.574,24.779,0,34.236L 110.4,127.608
					l 38.886,42.684C 158.859,179.742, 158.859,195.068, 149.286,204.521z M 129.495,73.705c 0.049-0.049, 0.143-0.094, 0.192-0.143
					c 3.102-3.057, 3.2-7.974, 0.309-11.128l 0.026-0.049l-23.322-24.264L 106.699,97.431 L 129.495,73.705z M 130.022,181.937l-23.322-24.207L 106.699,217.032 
					l 22.799-23.729c 0.049-0.049, 0.143-0.094, 0.192-0.192c 3.102-3.057, 3.2-7.925, 0.309-11.125L 130.022,181.937z M 217.604,173.391
					l-36.744-36.766c-4.747-4.725-4.747-12.461,0-17.19l 36.744-36.766c 3.008-3.008, 7.16-3.866, 11.031-3.102L 228.634,176.497 
					C 224.768,177.257, 220.612,176.403, 217.604,173.391z M 302.946,136.629l-36.766,36.766c-2.985,3.008-7.134,3.866-11.004,3.106l0-96.919 
					c 3.866-0.764, 8.019,0.094, 11.004,3.102l 36.766,36.766C 307.697,124.168, 307.697,131.904, 302.946,136.629z"  />
<glyph unicode="&#x6c;" d="M 56.565,75.373c 4.273-12.698, 14.848-21.673, 27.215-21.673l 154.974,0 
					c 12.412,0, 22.968,8.975, 27.215,21.673L 56.565,75.373 z M 143.27,107.889c 10.101-10.12, 26.473-10.12, 36.574,0l 78.178,78.155
					c 2.936,2.914, 4.796,6.396, 5.918,10.074c-10.146,2.104-20.646,3.964-31.56,5.444l-8.045-8.023c-0.094-0.143-0.143-0.335-0.264-0.478
					L 164.872,133.862c-1.837-1.864-4.845-1.864-6.705,0L 98.963,193.065c-0.143,0.143-0.166,0.335-0.286,0.478l-8.019,8.023
					c-10.891-1.483-21.365-3.343-31.488-5.444c 1.126-3.678, 2.985-7.16, 5.918-10.074L 143.27,107.889z"  />
<glyph unicode="&#x6d;" d="M 54.031,241.713l0-24.636 l 213.222,0 l0,24.636 L 54.031,241.713 z M 110.897,196.45l0-11.509 l 99.592,0 
					l0,11.509 L 110.897,196.45 z M 54.031,131.712l 213.222,0 l0,24.636 L 54.031,156.348 L 54.031,131.712 z M 110.897,111.089l0-11.512 l 99.592,0 l0,11.512 L 110.897,111.089 z M 54.031,46.381
					l 213.222,0 l0,24.648 L 54.031,71.029 L 54.031,46.381 z M 110.897,14.249l 99.592,0 L 210.488,25.758 L 110.897,25.758 L 110.897,14.249 z"  />
<glyph unicode="&#x6e;" d="M 200.523-11.494L 48.538-11.494 c-8.858,0-16.015,7.157-16.015,15.992L 32.523,223.228 
			c0,8.843, 7.157,16.004, 16.015,16.004l 39.624,0 l0-17.224 c0-4.642, 3.772-8.414, 8.399-8.414c 4.653,0, 8.403,3.772, 8.403,8.414l0,17.224 l 111.183,0 
			l0-17.224 c0-4.642, 3.776-8.414, 8.403-8.414c 4.649,0, 8.399,3.772, 8.399,8.414l0,17.224 l 39.624,0 c 8.832,0, 16.019-7.16, 16.019-16.004l0-146.662 
			L 200.523-11.494z M 171.351,156.405l-13.869,0 l-30.408-23.906l 8.331-10.541c 9.020,7.304, 14.321,11.652, 15.898,13.011
			c 1.574,1.374, 2.91,2.628, 3.987,3.75c-0.38-4.664-0.568-10.982-0.568-18.955l0-66.79 l 16.636,0 L 171.354,156.405 z M 88.166,259.132
			c0,4.642, 3.772,8.388, 8.399,8.388c 4.653,0, 8.403-3.75, 8.403-8.388l0-19.896 L 88.166,239.236 L 88.166,259.132 z M 216.154,259.132
			c0,4.642, 3.776,8.388, 8.403,8.388c 4.649,0, 8.399-3.75, 8.399-8.388l0-19.896 l-16.806,0 L 216.151,259.132 z"  />
<glyph unicode="&#x6f;" d="M 244.653,32.595L 244.653,137.724 l 36.265,0 l0,7.996 l-36.265,0 l-7.996,0 L 191.326,145.72 l-7.996,0 L 137.992,145.72 
			L 129.973,145.72 L 84.642,145.72 l-8,0 l-36.096,0 l0-7.996 l 36.096,0 l0-149.244 l-28.122,0 c-8.836,0-16.019,7.157-16.019,15.992L 32.501,223.224 c0,8.847, 7.183,16.004, 16.019,16.004
			l 39.65,0 l0-17.224 c0-4.642, 3.75-8.414, 8.403-8.414c 4.627,0, 8.399,3.772, 8.399,8.414L 104.971,239.232 l 111.194,0 l0-17.224 
			c0-4.642, 3.75-8.414, 8.403-8.414c 4.627,0, 8.399,3.772, 8.399,8.414L 232.971,239.232 l 39.605,0 c 8.858,0, 16.015-7.16, 16.015-16.004l0-146.673 
			L 244.653,32.595z M 88.173,259.128c0,4.642, 3.75,8.392, 8.403,8.392c 4.627,0, 8.399-3.75, 8.399-8.392l0-19.9 l-16.806,0 L 88.169,259.128 z M 216.173,259.128
			c0,4.642, 3.75,8.392, 8.403,8.392c 4.627,0, 8.399-3.75, 8.399-8.392l0-19.9 l-16.806,0 L 216.169,259.128 z M 129.973,137.724l0-149.244 L 84.642-11.516 L 84.642,137.724 L 129.973,137.724 z
			 M 183.33,137.724l0-149.244 L 137.992-11.516 L 137.992,137.724 L 183.33,137.724 z M 236.657,137.724l0-113.107 l-36.141-36.141l-9.19,0 L 191.33,137.724 L 236.657,137.724 z"  />
<glyph unicode="&#x70;" d="M 276.623,64.621L 276.623,147 l-8.019,0 l0-1.336 L 223.296,145.664 L 223.296,147 l-8.019,0 l0-1.336 L 169.965,145.664 L 169.965,147 
			l-8.019,0 l0-1.336 L 116.616,145.664 L 116.616,147 l-7.996,0 l0-1.336 L 63.285,145.664 L 63.285,147 l-8,0 l0-158.415 L 48.768-11.415 c-8.836,0-15.97,7.16-15.97,15.97L 32.798,223.021 
			c0,8.832, 7.134,15.981, 15.97,15.981l 39.507,0 l0-17.058 c0-4.642, 3.772-8.414, 8.403-8.414c 4.627,0, 8.399,3.772, 8.399,8.414l0,17.058 l 111.191,0 
			l0-17.058 c0-4.642, 3.78-8.414, 8.407-8.414s 8.399,3.772, 8.399,8.414l0,17.058 l 39.48,0 c 8.836,0, 15.992-7.149, 15.992-15.981l0-146.477 L 276.623,64.621
			z M 234.752,187.893L 86.746,187.893 l0-16.004 l 148.006,0 L 234.752,187.893 z M 88.275,259.072c0,4.642, 3.772,8.392, 8.403,8.392c 4.627,0, 8.399-3.75, 8.399-8.392l0-20.066 
			l-16.806,0 L 88.271,259.072 z M 216.279,259.072c0,4.642, 3.78,8.392, 8.407,8.392s 8.399-3.75, 8.399-8.392l0-20.066 l-16.809,0 L 216.275,259.072 z M 108.619,103.010L 63.285,103.010 
			L 63.285,137.668 l 45.331,0 L 108.619,103.010 z M 108.619,60.337L 63.285,60.337 L 63.285,94.999 l 45.331,0 L 108.619,60.337 z M 108.619,17.664L 63.285,17.664 l0,34.677 l 45.331,0 L 108.619,17.664 z M 108.619-11.411
			L 63.285-11.411 l0,21.079 l 45.331,0 L 108.619-11.411 z M 161.946,103.010L 116.616,103.010 L 116.616,137.668 l 45.331,0 L 161.946,103.010 z M 161.946,60.337L 116.616,60.337 L 116.616,94.999 l 45.331,0 L 161.946,60.337 z
			 M 161.946,17.664L 116.616,17.664 l0,34.677 l 45.331,0 L 161.946,17.664 z M 161.946-11.411L 116.616-11.411 l0,21.079 l 45.331,0 L 161.946-11.411 z M 215.277,103.010L 169.965,103.010 L 169.965,137.668 l 45.308,0 
			L 215.277,103.010 z M 215.277,60.337L 169.965,60.337 L 169.965,94.999 l 45.308,0 L 215.277,60.337 z M 215.277,17.664L 169.965,17.664 l0,34.677 l 45.308,0 L 215.277,17.664 z M 215.277,3.298l-14.705-14.705
			l-30.603,0 l0,21.079 l 45.308,0 L 215.277,3.298 z M 268.604,103.010L 223.296,103.010 L 223.296,137.668 l 45.308,0 L 268.604,103.010 z M 268.604,60.337L 223.296,60.337 L 223.296,94.999 l 45.308,0 L 268.604,60.337 z
			 M 229.673,17.664L 223.296,17.664 l0,34.677 l 41.039,0 L 229.673,17.664z"  />
<glyph unicode="&#x71;" d="M 200.561-11.422l-139.983,0 l 46.046,46.035l 26.857-26.872
			c 3.866,2.552, 6.562,6.709, 6.562,11.674L 140.043,80.173 c0,7.849-6.37,14.212-14.2,14.212L 65.062,94.389 c-4.962,0-9.118-2.699-11.652-6.554
			l 26.692-26.703L 32.787,13.809L 32.787,223.010 c0,8.832, 7.16,15.981, 15.996,15.981l 39.48,0 l0-17.058 c0-4.642, 3.776-8.414, 8.403-8.414
			s 8.403,3.772, 8.403,8.414l0,17.058 l 111.191,0 l0-17.058 c0-4.642, 3.776-8.414, 8.403-8.414s 8.403,3.772, 8.403,8.414l0,17.058 l 39.48,0 
			c 8.836,0, 15.996-7.149, 15.996-15.981l0-146.477 L 200.561-11.422z M 160.621,98.997c 8.836,0, 15.992,7.157, 15.992,15.992c0,8.832-7.157,15.992-15.992,15.992
			c-8.858,0-16.019-7.16-16.019-15.992C 144.602,106.157, 151.767,98.997, 160.621,98.997z M 274.278,145.653L 57.4,145.653 l0-7.996 l 216.877,0 L 274.278,145.653 z
			 M 88.264,259.057c0,4.642, 3.776,8.392, 8.403,8.392s 8.403-3.75, 8.403-8.392l0-20.066 l-16.809,0 L 88.26,259.057 z M 216.267,259.057
			c0,4.642, 3.776,8.392, 8.403,8.392s 8.403-3.75, 8.403-8.392l0-20.066 l-16.809,0 L 216.264,259.057 z"  />
<glyph unicode="&#x72;" d="M 257.57,130.172L 160.787,33.412l-15.277,15.273l 96.776,96.764
			c 15.183,15.194, 15.183,39.819,0,55.014c-15.183,15.183-39.819,15.183-54.999,0l-32.516-32.527l0,0L 103.356,116.544l0,0l-28.126-28.137l0,0
			c-10.552-10.541-10.888-27.298-0.764-37.429c 10.123-10.12, 26.884-9.777, 37.429,0.764l0,0L 193.4,133.229l0,0.011 l0,0
			c 5.252,5.263, 5.44,13.64, 0.384,18.718c-5.060,5.060-13.463,4.879-18.718-0.395l0,0l0,0L 108.849,85.35l-15.281,15.281l 66.199,66.199
			c0,0.011,0,0.011, 0.023,0.023c 13.489,13.496, 35.381,13.496, 48.888,0c 13.489-13.512, 13.489-35.403,0-48.904l0,0L 127.179,36.461l0,0
			c-18.575-18.575-48.651-18.575-67.223,0s-18.575,48.678,0,67.234l0,0l 112.049,112.045c 23.608,23.62, 61.922,23.62, 85.56,0
			C 281.205,192.109, 281.205,153.803, 257.57,130.172z"  />
<glyph unicode="&#x73;" d="M 264.128,64.508L 185.611,64.508 L 132.525,11.422L 132.525,64.508 L 78.547,64.508 
			c-7.326,0-13.248,5.933-13.248,13.259L 65.299,220.668 c0,7.326, 5.918,13.248, 13.248,13.248l 185.577,0 c 7.326,0, 13.248-5.918, 13.248-13.248l0-142.901 
			C 277.376,70.449, 271.458,64.508, 264.128,64.508z"  />
<glyph unicode="&#x74;" d="M 246.901,176.802c-12.341-7.127-27.211-5.775-37.978,2.195L 127.334,131.889
			c 0.143-1.288, 0.384-2.556, 0.384-3.881s-0.237-2.579-0.384-3.87l 81.589-47.104c 10.767,7.959, 25.634,9.31, 37.978,2.184
			c 16.587-9.574, 22.268-30.792, 12.695-47.356c-9.57-16.614-30.792-22.295-47.379-12.698c-12.341,7.115-18.62,20.668-17.092,33.976l-81.54,47.074
			c-5.752-4.273-12.819-6.886-20.552-6.886c-19.17,0-34.684,15.526-34.684,34.684c0,19.155, 15.514,34.684, 34.684,34.684
			c 7.733,0, 14.799-2.613, 20.552-6.886l 81.54,47.070c-1.528,13.32, 4.747,26.88, 17.092,34.003c 16.587,9.574, 37.809,3.893, 47.379-12.698
			C 269.169,207.593, 263.488,186.383, 246.901,176.802z"  />
<glyph unicode="&#x75;" d="M 290.846,148.243l-34.545-34.541c-4.273-4.284-11.245-4.284-15.514,0l-34.59,34.579
			c 8.76,3.546, 19.29,6.016, 30.795,7.017C 229.493,197.911, 192.399,230.313, 147.637,230.313c-50.131,0-90.786-40.655-90.786-90.797
			c0-50.146, 40.655-90.797, 90.786-90.797c 25.088,0, 47.789,10.172, 64.211,26.62l 17.762-17.766c-20.954-20.981-49.939-33.965-81.973-33.965
			c-64,0-115.9,51.896-115.9,115.908c0,64.011, 51.9,115.908, 115.9,115.908c 58.748,0, 107.181-43.757, 114.775-100.427
			C 272.99,153.864, 282.707,151.563, 290.846,148.243z"  />
<glyph unicode="&#x76;" d="M 303.88,136.712l-34.568-34.545c-4.273-4.284-11.223-4.284-15.518,0l-34.568,34.579
			c 8.734,3.558, 19.264,6.027, 30.746,7.029c-7.447,42.613-44.574,75.004-89.329,75.004c-25.065,0-47.789-10.168-64.211-26.605l-17.762,17.747
			c 20.981,20.996, 49.961,33.984, 81.973,33.984c 58.775,0, 107.185-43.757, 114.778-100.442C 285.997,142.347, 295.714,140.032, 303.88,136.712z
			 M 71.319,112.207c 7.496-42.598, 44.597-75.008, 89.325-75.008c 25.092,0, 47.789,10.168, 64.237,26.605l 17.739-17.762
			c-20.958-20.981-49.939-33.958-81.976-33.958c-58.748,0-107.162,43.746-114.752,100.431c-10.575,1.118-20.314,3.433-28.431,6.754l 34.519,34.541
			c 4.296,4.284, 11.268,4.284, 15.541,0l 34.59-34.579C 93.331,115.697, 82.827,113.212, 71.319,112.207z"  />
<glyph unicode="&#x77;" d="M 145.939,122.010L 145.939,192.776 l-7.447,0 l0-169.679 l-6.419,0 
			c-4.751,1.864-9.48,3.723-14.061,5.956L 118.012,254.246 c 36.1-41.63, 94.916-68.86, 161.544-68.86c 0.76,0, 1.502,0.094, 2.27,0.094
			C 249.306,154.101, 201.513,131.091, 145.939,122.010z"  />
<glyph unicode="&#x78;" d="M 215.608,44.457c0-2.978-2.391-5.387-5.372-5.387L 43.125,39.066 
					c-2.963,0-5.372,2.413-5.372,5.387L 37.749,194.737 l-17.114-17.103L 20.634,35.241 c0-7.326, 5.941-13.256, 13.267-13.256l 185.544,0 
					c 7.326,0, 13.248,5.929, 13.248,13.256L 232.7,96.55 l-17.092,0 L 215.608,44.457 z M 299.106,149.244l-33.276,33.276c-2.726,2.711-6.472,3.509-9.976,2.793l0-25.303 
					l-23.153,0 L 232.7,220.792 c0,7.315-5.918,13.248-13.248,13.248L 77.064,234.044 l-17.114-17.103l 150.287,0 c 2.985,0, 5.372-2.413, 5.372-5.368l0-51.561 l-10.91,0 
					c-0.644,0.023-1.265,0.192-1.909,0.192c-29.527,0-53.466-23.928-53.466-53.455c0-6.328, 1.265-12.307, 3.268-17.928
					c 0.026,0.030, 0.075,0.068, 0.094,0.102c-0.26,1.528-0.452,3.057-0.452,4.642c0,16.169, 13.101,29.274, 29.263,29.274
					c 0.049,0, 0.094-0.011, 0.143-0.011l0,0.297 l 74.214,0 l0-25.544 c 3.509-0.712, 7.255,0.083, 9.976,2.808l 33.276,33.272
					C 303.401,137.961, 303.401,144.934, 299.106,149.244z"  />
<glyph unicode="&#x79;" d="M 248.184,41.664c0-2.97-2.387-5.38-5.368-5.38L 75.689,36.284 
					c-2.963,0-5.372,2.413-5.372,5.38L 70.313,191.966 l-17.118-17.103L 53.199,32.456 c0-7.326, 5.944-13.263, 13.271-13.263l 185.555,0 
					c 7.33,0, 13.248,5.937, 13.248,13.263L 265.276,83.11 l-17.096,0 L 248.181,41.664 z M 265.28,142.584L 265.28,218.022 c0,7.315-5.918,13.248-13.248,13.248L 109.613,231.27 
					l-17.096-17.103l 150.298,0 c 2.985,0, 5.368-2.413, 5.368-5.368l0-62.227 c-1.205,0.083-2.406,0.184-3.629,0.184
					c-0.67,0-1.265-0.166-1.912-0.192L 191.469,146.56 l0,25.318 c-3.49,0.715-7.258-0.083-9.98-2.808l-33.276-33.276
					c-4.299-4.296-4.299-11.268,0-15.578l 33.276-33.28c 2.726-2.722, 6.494-3.524, 9.98-2.801l0,25.54 l 74.24,0 l0-0.297 
					c 0.049,0, 0.094,0.011, 0.143,0.011c 16.158,0, 29.263-13.101, 29.263-29.263c0-1.604-0.218-3.125-0.456-4.642
					c 0.026-0.045, 0.049-0.068, 0.075-0.102c 2.029,5.606, 3.294,11.599, 3.294,17.912C 298.029,115.471, 284.514,134.49, 265.28,142.584z"  />
<glyph unicode="&#x7a;" d="M 222.197,181.109c-0.685,0-1.257-0.184-1.897-0.192L 169.261,180.917 l0,25.227 
					c-3.471,0.712-7.224-0.087-9.954-2.797l-33.16-33.171c-4.284-4.284-4.284-11.234,0-15.526l 33.16-33.171
					c 2.726-2.711, 6.483-3.501, 9.954-2.782l0,25.449 l 74.010,0 l0-0.297 c 0.045,0, 0.079,0.019, 0.124,0.019c 16.109,0, 29.184-13.079, 29.184-29.184
					c0-1.581-0.222-3.121-0.486-4.616c 0.045-0.068, 0.068-0.087, 0.094-0.128c 2.014,5.598, 3.272,11.565, 3.272,17.871
					C 275.464,157.24, 251.599,181.109, 222.197,181.109z M 158.366,106.662c-0.617,0-1.227-0.136-1.886-0.181L 105.464,106.481 l0,25.231 
					c-3.494,0.712-7.228-0.083-9.954-2.801l-33.16-33.175c-4.288-4.28-4.288-11.226,0-15.537l 33.16-33.167
					c 2.726-2.677, 6.46-3.494, 9.954-2.767l0,25.476 l 73.976,0 l0-0.305 c 0.045,0, 0.087,0.019, 0.154,0.019c 16.132,0, 29.184-13.094, 29.184-29.207
					c0-1.581-0.222-3.102-0.456-4.631c0-0.023, 0.060-0.045, 0.087-0.090c 2.014,5.579, 3.249,11.565, 3.249,17.848
					C 211.663,82.816, 187.821,106.662, 158.366,106.662z"  />
<glyph unicode="&#x7b;" d="M 63.296,80.738c 3.185-0.666, 6.607,0.068, 9.129,2.575l 30.438,30.449
					c 3.953,3.934, 3.953,10.308,0,14.246l-30.438,30.46c-2.522,2.492-5.944,3.226-9.129,2.56l0-21.609 L 20.529,139.418 l0-37.436 l 42.767,0 L 63.296,80.738 z
					 M 145.058,180.872l-32.019,32.034l-36.002,0 c-7.782,0-14.080-6.302-14.080-14.076l0-14.234 l 48.279-48.301c 8.561-8.527, 8.561-22.351,0-30.867
					l-48.279-48.312l0-11.618 c0-7.797, 6.298-14.084, 14.080-14.084l 194.846,0 c 7.774,0, 14.11,6.287, 14.11,14.084L 285.997,180.872 L 145.058,180.872 z"  />
<glyph unicode="&#x7c;" d="M 11.686,205.572l 0.26,0 l 29.696-29.346l0,9.777 
					c0,1.792, 1.457,3.249, 3.272,3.249l 101.188,0 c 1.811,0, 3.272-1.457, 3.272-3.249l0-9.333 l 29.527,29.278l 0.907,0 l-1.506,0.952
					c-1.024,1.122-2.289,1.897-3.75,2.353L 104.109,253.542c-4.796,3.008-12.555,3.008-17.352,0L 15.959,209.024
					C 15.051,208.644, 14.287,208.166, 13.568,207.507L 11.064,205.944L 12.043,205.944 C 11.949,205.801, 11.784,205.73, 11.686,205.572z M 204.243,135.191l-13.651,0 l0-24.011 
					l 20.503,20.314C 209.566,133.673, 207.134,135.191, 204.243,135.191z M 180.755,83.317L 180.755,198.509 L 107.832,126.204
					c-6.897-6.825-18.071-6.825-24.968,0L 10.424,197.816l0-114.496 c0-4.653, 3.821-8.437, 8.497-8.437l 153.34,0 
					C 176.937,74.88, 180.755,78.664, 180.755,83.317z M 190.592,78.189c0-7.77-6.351-14.072-14.182-14.072l-23.895,0 l-12.672-12.567
					c-6.897-6.837-18.071-6.837-24.971,0l-12.721,12.567L 42.409,64.113 l0-55.462 c0-4.653, 3.821-8.425, 8.523-8.425l 153.314,0 
					c 4.702,0, 8.523,3.772, 8.523,8.425L 212.77,123.851 l-22.174-21.971L 190.596,78.189 z M 135.71,56.738l 7.424,7.375l-31.578,0 l 7.447-7.375
					C 123.614,52.168, 131.106,52.168, 135.71,56.738z M 310.679,169.694c-1.050,16.745-14.799,30.027-31.793,30.027L 234.534,199.725 l0,29.515 
					c-3.223,0.655-6.682-0.083-9.167-2.579l-30.577-30.566c-3.942-3.953-3.942-10.36,0-14.31l 7.97-7.962l0-0.764 l 0.764,0 l 21.843-21.843
					c 2.481-2.507, 5.941-3.234, 9.167-2.579l0,24.422 l 44.352,0 c 9.833,0, 18.5-4.521, 24.373-11.497L 255.281,108.981l-0.094-42.583l 55.639,60.977
					l 0.023,14.012c0-0.109, 0.026-0.215, 0.026-0.324l0,16.553 l 0.026,12.326L 310.679,169.694z"  />
<glyph unicode="&#x7d;" d="M 136.32,56.444c-4.604-4.578-12.081-4.578-16.708,0L 44.559,130.609
			l-0.264,0 c 1.457,2.519, 4.085,4.288, 7.232,4.288l 153.355,0 c 2.861,0, 5.297-1.517, 6.818-3.704L 136.32,56.444z M 181.365,198.216l0-53.229 L 127.703,144.986 
			L 181.365,198.216z M 149.975,176.373l0,9.336 c0,1.788-1.457,3.249-3.249,3.249L 45.512,188.954 c-1.792,0-3.249-1.461-3.249-3.249l0-9.781 l-29.719,29.35
			l-0.264,0 c 0.094,0.154, 0.264,0.226, 0.358,0.369L 11.686,205.647 l 2.485,1.566c 0.715,0.655, 1.483,1.129, 2.387,1.517L 87.383,253.252
			c 4.774,3.012, 12.555,3.012, 17.333,0l 70.445-44.296c 1.48-0.459, 2.744-1.231, 3.75-2.353l 1.498-0.952l-0.904,0 L 149.975,176.373z M 47.3,144.99
			c-7.853,0-14.2-6.298-14.2-14.084l0-56.324 L 19.543,74.583 c-4.702,0-8.523,3.78-8.523,8.437L 11.019,197.523 l 53.165-52.533L 47.3,144.99 z M 115.479,51.249
			c 6.897-6.84, 18.071-6.84, 24.971,0l 72.93,72.305l0-115.204 c0-4.649-3.825-8.437-8.497-8.437L 51.528-0.087 c-4.702,0-8.497,3.787-8.497,8.437
			L 43.031,122.854 L 115.479,51.249zM 311.541,169.649l-0.094-42.575l-30.603-35.377l 15.608-15.624
			c-1.815-2.744-4.777-4.664-8.305-4.664L 244.917,71.409 c-5.591,0-10.127,4.533-10.127,10.12L 234.79,124.774 c0,3.535, 1.935,6.483, 4.68,8.297l 20.22-20.232
			L 311.541,169.649zM 279.503,172.766l-76.126,0 l0,26.669 l 76.126,0 
			c 17.69,0, 32.015-14.325, 32.015-32.004l0-26.662 C 311.518,158.434, 297.197,172.766, 279.503,172.766z"  />
<glyph unicode="&#x7e;" d="M 279.134,144.407L 82.737,233.291l0-1.352 l 33.261-88.482
					c 0.561-1.48, 0.983-3.192, 1.272-5.015l 87.123-5.173l0-1.483 l-87.081-5.094c-0.29-1.92-0.723-3.72-1.314-5.267l-33.261-88.471l0-1.054 
					l 196.393,88.904C 288.35,127.33, 288.35,137.89, 279.134,144.407z"  />
<glyph unicode="&#xe000;" d="M 284.145,251.441c-11.452,11.456-25.449,16.011-31.27,10.195l-0.011,0.011
					l-27.991-27.983L 110.569,233.668 l-17.186-17.19l 114.304,0 L 95.752,104.572l0-41.495 l 41.517,0 l 112.339,112.339l0-132.021 c0-2.993-2.398-5.406-5.365-5.406
					l-167.718,0 c-2.989,0-5.41,2.417-5.41,5.406l0,150.822 l-17.16-17.163l0-142.912 c0-7.341, 5.952-13.297, 13.289-13.297L 253.474,20.849 
					c 7.341,0, 13.316,5.956, 13.316,13.297L 266.79,192.602 l 27.561,27.561l-0.011,0.011C 300.16,225.995, 295.597,240.011, 284.145,251.441z M 137.291,63.115
					L 95.8,104.591l 10.376,10.402l 41.506-41.491L 137.291,63.115z"  />
<glyph unicode="&#xe001;" d="M 127.266,147.347c 25.664,0, 46.472,20.815, 46.472,46.475
					c0,25.664-20.808,46.464-46.472,46.464c-25.687,0-46.468-20.8-46.468-46.464C 80.798,168.166, 101.587,147.347, 127.266,147.347z
					 M 278.449,131.087c-8.877,8.847-19.678,12.393-24.181,7.891L 137.769,22.494l-0.023,0 l0-32.079 l 32.079,0 l 0.041,0.038l-32.075,32.045l 8.030,8.030
					l 32.049-32.068l 108.469,108.454C 290.82,111.409, 287.292,122.236, 278.449,131.087z M 162.786,134.712l-35.497-35.524l-35.539,35.535
					c-27.136-9.22-45.888-28.597-45.888-51.098c0,0,0,0,0-0.008l-0.049,0 c0-22.528, 4.491-43.535, 12.137-61.448l 62.746,0 L 202.974,104.452
					C 195.464,117.7, 181.033,128.508, 162.786,134.712z"  />
<glyph unicode="&#xe002;" d="M 259.023,73.321l0,0.034 c0,27.558-22.935,51.377-56.207,62.679L 159.209,92.427
					l-43.614,43.618c-33.28-11.302-56.226-35.125-56.226-62.69c0-0.011,0-0.023,0-0.034l-0.060,0 c 0.004-27.61, 5.402-53.395, 14.739-75.317
					l 170.274,0 c 9.34,21.914, 14.739,47.706, 14.743,75.317L 259.023,73.318 z M 159.191,151.469c 31.499,0, 57.009,25.51, 57.009,56.986
					c0,31.48-25.51,56.994-57.009,56.994c-31.484,0-56.986-25.513-56.986-56.994C 102.204,176.979, 127.703,151.469, 159.191,151.469z"  />
<glyph unicode="&#xe003;" d="M 275.87,150.17c 2.172,2.067, 3.106,5.24, 2.142,8.271
					c-0.998,3.057-3.648,5.082-6.637,5.466c-0.008,0.015-0.011,0.034-0.019,0.049l-71.947,9.461l-31.262,65.517
					c-0.011,0-0.026,0-0.038,0c-1.299,2.718-4.055,4.612-7.251,4.612s-5.952-1.894-7.243-4.608c-0.011,0-0.023,0-0.034,0
					L 122.368,173.417L 50.349,163.949c-0.004-0.011-0.008-0.026-0.015-0.041c-2.97-0.392-5.602-2.413-6.596-5.455
					c-0.99-3.031-0.045-6.193, 2.112-8.26c-0.004-0.015-0.011-0.030-0.015-0.049l 52.691-50.018l-13.24-71.386
					c 0.011-0.011, 0.023-0.019, 0.038-0.030c-0.535-2.948, 0.561-6.054, 3.17-7.936c 2.575-1.909, 5.907-1.988, 8.553-0.55
					c 0.008-0.004, 0.015-0.011, 0.023-0.015l 63.797,34.65l 63.793-34.65l 0.034,0.023c 2.632-1.446, 5.975-1.363, 8.546,0.546
					c 2.62,1.886, 3.712,5, 3.174,7.94c 0.011,0.008, 0.023,0.019, 0.034,0.026l-13.237,71.386l 52.691,49.984
					C 275.885,150.133, 275.878,150.152, 275.87,150.17z"  />
<glyph unicode="&#xe004;" d="M 275.253,144.896c 2.168,2.067, 3.095,5.24, 2.101,8.271c-0.971,3.053-3.625,5.075-6.588,5.466
					c-0.008,0.015-0.011,0.030-0.019,0.045l-72.004,9.472l-31.236,65.528l-0.030,0 c-1.299,2.711-4.051,4.604-7.251,4.604
					c-3.2,0-5.948-1.894-7.243-4.604c-0.011,0-0.026,0-0.041,0l-31.262-65.525l-71.966-9.468c-0.004-0.015-0.011-0.030-0.015-0.045
					c-2.974-0.388-5.617-2.413-6.596-5.451c-0.994-3.042-0.056-6.208, 2.104-8.279c-0.004-0.015-0.011-0.030-0.015-0.049l 52.698-50.007
					l-13.233-71.383c 0.011-0.008, 0.019-0.015, 0.030-0.026c-0.546-2.948, 0.553-6.099, 3.166-7.97c 2.583-1.875, 5.922-1.961, 8.55-0.512
					c 0.019-0.011, 0.034-0.026, 0.053-0.038l 63.778,34.658l 63.785-34.658l 0.034,0.023c 2.65-1.442, 5.99-1.348, 8.561,0.508
					c 2.579,1.882, 3.686,5.026, 3.14,7.97c 0.019,0.015, 0.041,0.030, 0.060,0.045l-13.244,71.383L 275.26,144.873
					C 275.26,144.881, 275.256,144.888, 275.253,144.896z M 202.432,101.978l 11.098-59.625L 160.226,71.273l-53.301-28.92l 11.042,59.625
					l-43.976,41.732l 60.107,7.913l 26.127,54.75l 26.074-54.75l 60.156-7.913L 202.432,101.978z"  />
<glyph unicode="&#xe005;" d="M 237.101,147.479L 149.971,234.635c-4.435-10.921-8.196-22.912-11.166-35.776
					l 53.624-53.613L 66.44,145.242 c-2.33-11.366-2.33-23.104,0-34.462l 126.257,0 L 138.876,56.952c 2.989-12.796, 6.743-24.798, 11.189-35.667l 87.036,87.063
					C 247.921,119.153, 247.921,136.663, 237.101,147.479z"  />
<glyph unicode="&#xe006;" d="M 243.464,145.239L 117.47,145.239 l 53.621,53.613c-2.97,12.86-6.731,24.855-11.162,35.776
					L 72.798,147.479c-10.82-10.816-10.82-28.329,0-39.127l 87.040-87.063c 4.435,10.869, 8.188,22.863, 11.189,35.667L 117.21,110.78L 243.464,110.78 
					C 245.794,122.138, 245.794,133.88, 243.464,145.239zM 244.134,145.239L 118.14,145.239 l 53.621,53.613
						c-2.97,12.86-6.724,24.855-11.162,35.776L 73.468,147.479c-10.816-10.816-10.816-28.329,0-39.127l 87.044-87.063
						c 4.435,10.869, 8.192,22.863, 11.185,35.667L 117.88,110.78l 126.257,0 C 246.472,122.138, 246.472,133.88, 244.134,145.239z"  />
<glyph unicode="&#xe007;" d="M 298.722,92.224c-8.399-18.025-29.847-25.848-47.868-17.412
			c-7.91,3.656-13.67,9.894-17.141,17.167l-36.469,16.99l-20.781-1.822l-1.803-20.785l 17.182-36.902c 7.078-3.505, 13.116-9.19, 16.742-16.904
			c 8.392-18.040, 0.595-39.492-17.472-47.925c-18.044-8.399-39.477-0.576-47.872,17.464c-8.429,18.052-0.617,39.473, 17.419,47.872
			c 4.77,2.244, 9.792,3.275, 14.758,3.339l-19.994,42.816l0,0l-7.759,16.678L 35.814,177.683c-10.616,6.163-16.35,17.348-16.23,28.792
			l 107.84-50.278L 77.143,264.034c 11.426,0.124, 22.633-5.613, 28.789-16.226l 64.919-111.846l 16.663-7.782l0,0l 42.549-19.855
			c 0.132,4.841, 1.163,9.717, 3.339,14.374c 8.392,18.040, 29.873,25.864, 47.891,17.438C 299.332,131.723, 307.136,110.268, 298.722,92.224z
			 M 164.175,42.447c-13.892-6.472-19.893-22.991-13.414-36.887c 6.475-13.869, 22.987-19.893, 36.883-13.429c 13.877,6.509, 19.896,22.995, 13.425,36.909
			C 194.583,42.925, 178.082,48.926, 164.175,42.447z M 277.771,132.616c-13.869,6.472-30.374,0.478-36.86-13.425
			c-6.46-13.865-0.44-30.396, 13.425-36.86c 13.877-6.487, 30.374-0.482, 36.86,13.402C 297.683,109.651, 291.686,126.144, 277.771,132.616z"  />
<glyph unicode="&#xe008;" d="M 240.704,139.927L 81.216,139.927 l0-23.928 l 159.488,0 L 240.704,139.927 z M 50.251,154.53l-16.369,0 l0-53.173 
					l 16.369,0 L 50.251,154.53 z M 50.251,22.505l0,25.694 l-16.369,0 l0-34.511 c0-6.984, 5.673-12.649, 12.68-12.649l 34.534,0 l0,16.324 l-25.709,0 
					C 52.544,17.363, 50.251,19.697, 50.251,22.505z M 187.445,254.95l-53.173,0 l0-16.361 l 53.173,0 L 187.445,254.95 z M 240.704,201.054L 81.216,201.054 l0-23.928 l 159.488,0 
					L 240.704,201.054 z M 271.416,22.505c0-2.812-2.285-5.143-5.112-5.143l-25.717,0 l0-16.324 l 34.507,0 c 7.032,0, 12.706,5.666, 12.706,12.649l0,34.511 l-16.384,0 
					L 271.416,22.505 z M 275.087,254.95l-34.507,0 l0-16.361 l 25.717,0 c 2.831,0, 5.112-2.312, 5.112-5.15l0-25.739 l 16.384,0 l0,34.564 
					C 287.797,249.272, 282.127,254.95, 275.087,254.95z M 271.416,101.361l 16.384,0 l0,53.173 l-16.384,0 L 271.416,101.361 z M 33.882,242.263l0-34.564 l 16.369,0 L 50.251,233.438 
					c0,2.839, 2.293,5.15, 5.139,5.15l 25.709,0 L 81.099,254.95 l-34.534,0 C 39.556,254.95, 33.882,249.272, 33.882,242.263z M 134.28,1.039l 53.173,0 l0,16.324 
					l-53.173,0 L 134.28,1.039 z M 240.704,78.769L 81.216,78.769 l0-23.91 l 159.488,0 L 240.704,78.769 z"  />
<glyph unicode="&#xe009;" d="M 275.11,213.304l-29.308,0 l0,29.308 c0,7.292-5.952,13.203-13.229,13.203L 90.624,255.819 
					l-17.032-17.054l 149.798,0 c 2.963,0, 5.38-2.394, 5.38-5.357l0-20.104 l-95.578,0 l-17.069-17.062l 149.813,0 c 2.955,0, 5.335-2.402, 5.335-5.346l0-166.6 
					c0-2.955-2.383-5.327-5.335-5.327L 99.332,18.97 c-2.952,0-5.331,2.376-5.331,5.327L 94.001,174.136 l-17.080-17.073l0-95.571 l-20.096,0 
					c-2.974,0-5.35,2.406-5.35,5.346L 51.475,216.666 l-17.065-17.062l0-141.956 c0-7.277, 5.922-13.199, 13.203-13.199l 29.301,0 l0-29.312 
					c0-7.307, 5.948-13.21, 13.225-13.21L 275.11,1.924 c 7.285,0, 13.184,5.899, 13.184,13.21l0,184.949 C 288.297,207.386, 282.398,213.304, 275.11,213.304z"  />
<glyph unicode="&#xe00a;" d="M 286.761,202.711L 246.803,202.711 L 246.803,242.662 c0,7.296-5.907,13.218-13.229,13.218l-34.831,0 
					L 198.743,256.794 c0,7.3-5.914,13.199-13.184,13.199L 157.143,269.993 c-0.286,8.809-7.428,15.883-16.282,15.883c-8.851,0-15.992-7.074-16.279-15.883L 96.218,269.993 
					c-7.277,0-13.176-5.899-13.176-13.199l0-0.915 l-34.417,0 c-7.307,0-13.21-5.922-13.21-13.218l0-184.971 c0-7.288, 5.903-13.21, 13.21-13.21
					l 39.936,0 l0-39.947 c0-7.281, 5.899-13.207, 13.229-13.207l 184.968,0 c 7.296,0, 13.192,5.926, 13.192,13.207L 299.953,189.493 
					C 299.953,196.8, 294.061,202.711, 286.761,202.711z M 282.921,13.704c0-2.944-2.376-5.353-5.32-5.353L 110.976,8.35 
					c-2.955,0-5.331,2.413-5.331,5.353L 105.645,163.561 l-17.084-17.088l0-84.958 l-30.739,0 c-2.97,0-5.365,2.394-5.365,5.35L 52.457,233.468 
					c0,2.959, 2.402,5.357, 5.365,5.357l 25.171,0 l0-18.613 l 115.795,0 l0,18.613 l 25.641,0 c 2.948,0, 5.312-2.402, 5.312-5.357l0-30.754 L 144.787,202.711 l-17.043-17.047
					l 149.854,0 c 2.948,0, 5.32-2.402, 5.32-5.35L 282.921,13.704 z"  />
<glyph unicode="&#xe00b;" d="M 267.991,67.452l0,0.215 c-15.326,10.97-25.032,26.842-25.032,44.548l0,17.254 
					l-22.37-22.37l0-4.002 c 0.459-16.384, 9.769-31.349, 24.813-43.144L 220.585,59.953 l0-0.087 L 173.35,59.866 l-22.679-22.679l 108.107,0 
					c-0.004,0.004-0.004,0.011-0.008,0.015c 9.073,0.079, 16.433,7.484, 16.433,16.602C 275.2,59.46, 272.339,64.459, 267.991,67.452z
					 M 167.876-2.831c 15.356,0, 28.198,10.68, 31.586,25.009L 136.256,22.178 C 139.648,7.849, 152.493-2.831, 167.876-2.831z M 258.936,219.034l-26.417-26.421
					c-7.672,10.338-19.128,18.673-32.855,23.797c-3.080,14.746-16.139,25.826-31.789,25.826c-15.706,0-28.804-11.125-31.849-25.92
					c-25.442-9.581-43.095-30.17-43.095-54.091l0-50.014 c0-17.705-9.694-33.577-25.009-44.544l0-0.23 c-4.348-2.993-7.202-7.989-7.202-13.643
					c0-9.099, 7.319-16.482, 16.414-16.595l-22.615-22.618c 4.574-6.931, 10.534-12.883, 17.498-17.483l 204.424,204.435
					C 271.887,208.497, 265.912,214.46, 258.936,219.034z M 99.878,59.949l-9.367,0 c 15.055,11.784, 24.369,26.726, 24.847,43.095L 115.358,162.229 l 0.286,0 
					c 0.011,21.090, 23.416,38.197, 52.329,38.197c 21.941,0, 40.7-9.897, 48.459-23.91L 99.878,59.949z"  />
<glyph unicode="&#xe00c;" d="M 210.752,90.778l0,0.215 c-14.453,10.334-23.605,25.295-23.605,41.988L 187.147,180.126 
					c0,22.618-16.723,42.086-40.821,51.083c-2.903,13.896-15.213,24.35-29.997,24.35c-14.769,0-27.132-10.496-30.008-24.437
					c-23.97-9.035-40.599-28.45-40.599-50.997l0-47.145 c0-16.681-9.129-31.631-23.56-41.961l0-0.203 c-4.111-2.824-6.814-7.552-6.814-12.924
					c0-8.576, 6.916-15.522, 15.496-15.608c-0.004-0.008-0.004-0.015-0.008-0.019l 171.189,0 c-0.004,0.004-0.004,0.011-0.008,0.015
					c 8.568,0.079, 15.503,7.029, 15.503,15.612C 217.521,83.241, 214.837,87.951, 210.752,90.778z M 166.039,83.712l0-0.087 L 66.831,83.625 l0,0.087 l-23.398,0 
					c 14.328,11.241, 23.13,25.528, 23.398,41.163L 66.831,180.137 l 0.294,0 c 0.019,19.885, 22.091,35.994, 49.299,35.994c 27.234,0, 49.314-16.113, 49.333-35.994
					l 0.282,0 l0-55.187 c 0.233-15.665, 9.028-29.982, 23.416-41.242L 166.039,83.708 z M 116.329,24.531c 14.505,0, 26.609,10.059, 29.798,23.582L 86.536,48.113 
					C 89.739,34.59, 101.865,24.531, 116.329,24.531z M 312.139,154.978l-36.521,0 l0,36.465 c-7.842,1.92-16,1.92-23.842-0.004l0-36.461 l-36.457,0 
					c-1.905-7.846-1.92-16.004,0-23.846l 36.457,0 l0-36.514 c 7.842-1.935, 16-1.935, 23.842-0.019l0,36.533 l 36.521,0 
					C 314.097,138.97, 314.059,147.128, 312.139,154.978z"  />
<glyph unicode="&#xe00d;" d="M 100.74,145.502L 100.74,159.571 L 33.077,159.571 l0-15.435 l 45.022,0 L 30.118,77.109l0-12.435 l 71.996,0 l0,15.439 L 53.82,80.109 L 100.74,145.502z M 203.851,172.45l0,18.756 
					L 113.589,191.206 l0-20.593 l 60.051,0 L 109.688,81.257l0-16.584 l 95.977,0 l0,20.6 L 141.289,85.278 L 203.851,172.45z M 234.948,80.109l 46.897,65.393L 281.848,159.571 L 214.178,159.571 
					l0-15.435 l 45.026,0 l-47.977-67.027l0-12.435 l 72.004,0 l0,15.439 L 234.948,80.109 z"  />
<glyph unicode="&#xe00e;" d="M 247.002,108.284c-4.371,1.54-7.447,10.244-7.447,19.663
					c0,9.431, 3.072,18.131, 7.447,19.663l 6.991,2.455c-2.432,10.229-6.456,19.84-11.848,28.533l-6.664-3.208
					c-4.156-2.003-12.506,1.984-19.162,8.636c-6.66,6.667-10.635,14.995-8.651,19.155l 3.223,6.701c-8.696,5.384-18.285,9.461-28.529,11.87
					l-2.477-7.055c-1.506-4.363-10.217-7.432-19.656-7.432c-9.4,0-18.12,3.068-19.659,7.432l-2.473,7.055
					c-10.244-2.409-19.821-6.498-28.506-11.885l 3.219-6.686c 2.003-4.152-1.992-12.484-8.685-19.155c-6.648-6.652-14.953-10.639-19.132-8.636
					l-6.637,3.192c-5.376-8.696-9.457-18.278-11.866-28.518l 6.995-2.455c 4.36-1.528, 7.409-10.232, 7.409-19.663
					c0-9.419-3.049-18.12-7.409-19.663l-6.999-2.451c 2.428-10.229, 6.445-19.836, 11.832-28.525l 6.675,3.211
					c 4.175,2.010, 12.48-1.992, 19.132-8.663c 6.694-6.66, 10.684-14.972, 8.685-19.128l-3.23-6.712c 8.689-5.376, 18.274-9.449, 28.514-11.855
					l 2.477,7.063c 1.54,4.356, 10.263,7.405, 19.659,7.405c 9.438,0, 18.15-3.049, 19.656-7.405l 2.462-7.017
					c 10.232,2.432, 19.84,6.453, 28.533,11.84l-3.215,6.682c-1.984,4.152, 1.992,12.465, 8.651,19.128c 6.652,6.667, 14.999,10.673, 19.162,8.663
					l 6.69-3.219c 5.38,8.693, 9.457,18.278, 11.863,28.518L 247.002,108.284z M 160.237,77.101c-28.088,0-50.835,22.758-50.835,50.846
					c0,28.088, 22.746,50.846, 50.835,50.846c 28.070,0, 50.854-22.758, 50.854-50.846C 211.091,99.859, 188.307,77.101, 160.237,77.101z"  />
<glyph unicode="&#xe00f;" d="M 292.913,150.908L 163.238,150.908 L 163.238,188.777 l0,0 C 163.226,229.877, 129.909,263.194, 88.809,263.194
					c-41.103,0-74.417-33.318-74.428-74.417L 14.359,188.777 l0-43.43 l 26.921,0 L 41.28,188.777 l-0.316,0 c 0.015,26.413, 21.436,47.812, 47.853,47.812
					c 26.417,0, 47.827-21.399, 47.842-47.812l-0.354,0 l0-37.869 l-7.093,0 c-7.296,0-13.218-5.896-13.218-13.169l0-131.825 
					c0-7.27, 5.922-13.233, 13.218-13.233l 163.697,0 c 7.296,0, 13.207,5.963, 13.207,13.233L 306.12,137.736 C 306.123,145.009, 300.209,150.908, 292.913,150.908z"  />
<glyph unicode="&#xe010;" d="M 242.067,153.224l-7.432,0 l0,36.819 c 0.004,0.343, 0.053,0.674, 0.053,1.020
					c0,41.111-33.329,74.432-74.455,74.432c-41.084,0-74.413-33.318-74.417-74.421l-0.008,0 l0-37.847 l-7.443,0 
					c-7.285,0-13.195-5.896-13.195-13.203l0-131.821 c0-7.273, 5.911-13.203, 13.195-13.203l 163.697,0 c 7.304,0, 13.229,5.929, 13.229,13.203L 255.296,140.017 
					C 255.3,147.324, 249.378,153.224, 242.067,153.224z M 112.414,191.070c 0.011,26.417, 21.429,47.819, 47.853,47.819
					c 26.402,0, 47.808-21.402, 47.823-47.819l-0.331,0 l0-37.847 L 112.719,153.22 L 112.719,191.070 L 112.414,191.070 z"  />
</font>
</defs>
</svg>
